<svg xmlns="http://www.w3.org/2000/svg" fill="none" viewBox="95.58 190.99 1445.39 910.02">
    <defs>
        <linearGradient id="paint0_linear_9:669" x1="1374.7" y1="605.749" x2="1495.7" y2="605.749" gradientUnits="userSpaceOnUse">
            <stop stop-color="#D1F4FF"/>
            <stop offset="0.418" stop-color="#FBFEFE"/>
            <stop offset="1" stop-color="#D1F4FF"/>
        </linearGradient>
    </defs>
    <path d="M724.885 577.386C748.796 691.888 823.964 851.652 978.483 953.246C1128.19 1059.4 1306.62 1064.83 1412.66 1013.66C1523.08 963.991 1561.12 857.733 1531.05 775.092C1500.74 688.658 1430.59 629.932 1363.96 592.111C1294.67 553.73 1228.89 536.249 1145.8 519.414C1064.91 503.101 979.465 477.497 911.838 441.907C843.22 409.004 792.418 366.11 757.991 377.354C726.785 386.579 700.204 459.353 724.885 577.386Z" fill="#E7F0FE"/>
    <path d="M893.918 738.636C877.432 622.834 812.707 458.561 665.049 347.229C522.489 231.656 344.779 214.748 235.661 258.977C122.271 301.432 77.4727 405.02 102.158 489.423C126.831 577.632 193.059 640.75 257.112 682.783C323.793 725.544 388.298 747.224 470.137 769.377C549.811 790.868 633.429 821.919 698.628 861.79C764.985 899.043 812.918 945.12 848 936.114C879.732 928.922 910.942 858.013 893.918 738.636Z" fill="#E7F0FE"/>
    <path d="M929.4 974.99H715.966V1085.22H929.4V974.99Z" fill="#A0C5FF"/>
    <path opacity="0.3" d="M929.4 1046.53L715.966 1022.78V974.99H929.4V1046.53Z" fill="#000141"/>
    <path d="M1234.89 1065.88H404.611C387.126 1065.88 372.949 1080.06 372.949 1097.54H1266.56C1266.56 1080.05 1252.38 1065.88 1234.89 1065.88Z" fill="#C7DBFF"/>
    <path d="M1451.05 243.034V947.574C1451.05 976.296 1427.73 999.616 1399.01 999.616H282.845C258.534 999.616 238.103 982.885 232.396 960.301C231.358 956.218 230.824 951.963 230.824 947.574V243.034C230.824 214.287 254.145 190.992 282.84 190.992H1399.01C1427.73 190.992 1451.05 214.287 1451.05 243.034Z" fill="#A0C5FF"/>
    <path d="M1379.21 220.613H302.66C279.343 220.613 260.441 239.515 260.441 262.832V927.764C260.441 951.08 279.343 969.982 302.66 969.982H1379.21C1402.53 969.982 1421.43 951.08 1421.43 927.764V262.832C1421.43 239.515 1402.53 220.613 1379.21 220.613Z" fill="#E7F0FE"/>
    <path d="M1379.21 220.613H302.66C279.343 220.613 260.441 239.515 260.441 262.832V927.764C260.441 951.08 279.343 969.982 302.66 969.982H1379.21C1402.53 969.982 1421.43 951.08 1421.43 927.764V262.832C1421.43 239.515 1402.53 220.613 1379.21 220.613Z" fill="#E7F0FE"/>
    <path d="M1379.21 245.962H906.205V944.629H1379.21C1388.52 944.629 1396.08 937.062 1396.08 927.764V262.832C1396.08 253.529 1388.51 245.962 1379.21 245.962Z" fill="white"/>
    <path d="M252.465 1101.01H1429.42C1432.63 1101.01 1435.24 1098.4 1435.24 1095.18C1435.24 1091.96 1432.63 1089.35 1429.42 1089.35H252.465C249.248 1089.35 246.639 1091.96 246.639 1095.18C246.639 1098.4 249.244 1101.01 252.465 1101.01ZM1010.99 371.252C994.53 371.252 981.192 384.59 981.192 401.05C981.192 417.51 994.534 430.848 1010.99 430.848C1027.45 430.848 1040.79 417.51 1040.79 401.05C1040.79 384.594 1027.45 371.252 1010.99 371.252ZM1010.99 425.951C997.235 425.951 986.063 414.81 986.063 401.054C986.063 387.299 997.235 376.157 1010.99 376.157C1024.75 376.157 1035.89 387.299 1035.89 401.054C1035.89 414.81 1024.75 425.951 1010.99 425.951ZM1153.81 378.168H1075.41C1073.48 378.168 1071.69 379.486 1071.38 381.39C1070.98 383.815 1072.85 385.912 1075.2 385.912H1153.81C1155.95 385.912 1157.68 384.176 1157.68 382.04C1157.68 379.904 1155.95 378.168 1153.81 378.168ZM1303.55 378.168H1166.82C1164.68 378.168 1162.95 379.904 1162.95 382.04C1162.95 384.181 1164.68 385.912 1166.82 385.912H1303.76C1306.11 385.912 1307.97 383.815 1307.58 381.39C1307.27 379.486 1305.48 378.168 1303.55 378.168ZM1187.61 397.178H1075.41C1073.48 397.178 1071.69 398.496 1071.38 400.399C1070.99 402.824 1072.85 404.921 1075.2 404.921H1187.62C1189.76 404.921 1191.49 403.186 1191.49 401.05C1191.48 398.914 1189.75 397.178 1187.61 397.178ZM1187.61 416.192H1075.41C1073.48 416.192 1071.69 417.51 1071.38 419.413C1070.99 421.838 1072.85 423.94 1075.2 423.94H1187.62C1189.76 423.94 1191.49 422.204 1191.49 420.068C1191.48 417.923 1189.75 416.192 1187.61 416.192ZM1303.55 397.178H1200.61C1198.48 397.178 1196.74 398.914 1196.74 401.05C1196.74 403.19 1198.48 404.921 1200.61 404.921H1303.75C1306.1 404.921 1307.97 402.824 1307.57 400.399C1307.27 398.5 1305.48 397.178 1303.55 397.178Z" fill="#A0C5FF"/>
    <path d="M1010.56 415.921C1010.08 415.921 1009.59 415.873 1009.12 415.774C1007.24 415.387 1005.6 414.263 1004.56 412.652L994.013 396.325C991.873 393.014 992.825 388.591 996.141 386.45C999.457 384.301 1003.88 385.262 1006.02 388.573L1012.62 398.802L1046.73 375.972C1050 373.767 1054.44 374.65 1056.64 377.936C1058.83 381.209 1057.95 385.645 1054.67 387.841L1014.53 414.711C1013.35 415.507 1011.96 415.921 1010.56 415.921Z" fill="#A0C5FF"/>
    <path d="M1248.03 501.908C1248.03 518.368 1261.37 531.706 1277.83 531.706C1294.29 531.706 1307.63 518.368 1307.63 501.908C1307.63 485.448 1294.29 472.11 1277.83 472.11C1261.37 472.11 1248.03 485.448 1248.03 501.908ZM1252.93 501.908C1252.93 488.153 1264.08 477.011 1277.83 477.011C1291.59 477.011 1302.76 488.153 1302.76 501.908C1302.76 515.664 1291.59 526.805 1277.83 526.805C1264.08 526.805 1252.93 515.664 1252.93 501.908ZM1135.01 479.027H1213.42C1215.35 479.027 1217.13 480.345 1217.44 482.248C1217.84 484.673 1215.97 486.77 1213.62 486.77H1135.01C1132.87 486.77 1131.14 485.035 1131.14 482.899C1131.14 480.758 1132.87 479.027 1135.01 479.027ZM985.271 479.027H1122C1124.14 479.027 1125.87 480.763 1125.87 482.899C1125.87 485.039 1124.14 486.77 1122 486.77H985.064C982.713 486.77 980.848 484.673 981.244 482.248C981.554 480.345 983.341 479.027 985.271 479.027ZM1101.21 498.037H1213.41C1215.34 498.037 1217.13 499.354 1217.44 501.258C1217.84 503.683 1215.97 505.78 1213.62 505.78H1101.21C1099.07 505.78 1097.33 504.044 1097.33 501.908C1097.34 499.772 1099.07 498.037 1101.21 498.037ZM1101.21 517.046H1213.41C1215.34 517.046 1217.13 518.364 1217.44 520.268C1217.84 522.692 1215.97 524.794 1213.62 524.794H1101.21C1099.07 524.794 1097.33 523.058 1097.33 520.922C1097.34 518.782 1099.07 517.046 1101.21 517.046ZM985.275 498.037H1088.21C1090.34 498.037 1092.08 499.772 1092.08 501.908C1092.08 504.049 1090.34 505.78 1088.21 505.78H985.064C982.713 505.78 980.848 503.683 981.244 501.258C981.554 499.354 983.346 498.037 985.275 498.037Z" fill="#A0C5FF"/>
    <path d="M1281.15 513.268C1280.67 513.268 1280.19 513.221 1279.71 513.122C1277.83 512.734 1276.19 511.61 1275.15 510L1264.61 493.673C1262.46 490.361 1263.42 485.938 1266.73 483.798C1270.05 481.649 1274.47 482.609 1276.61 485.921L1283.21 496.149L1317.32 473.32C1320.6 471.115 1325.03 471.998 1327.23 475.284C1329.42 478.557 1328.55 482.993 1325.26 485.189L1285.13 512.058C1283.94 512.855 1282.56 513.268 1281.15 513.268Z" fill="#A0C5FF"/>
    <path d="M1222.45 868.96C1222.45 868.96 1204.33 916.239 1189.09 943.513C1215.71 943.513 1235.9 943.513 1235.9 943.513V883.172L1222.45 868.96Z" fill="#FECECC"/>
    <path d="M1279.15 800.118C1279.15 800.118 1236.42 829.882 1217.83 868.547C1217.83 868.547 1243.37 918.126 1258.61 910.145C1280.87 898.487 1279.15 800.118 1279.15 800.118Z" fill="#A0C5FF"/>
    <path d="M1362.42 943.513C1361.69 880.868 1342.95 798.981 1292.75 797.836C1252.62 796.923 1227.15 878.108 1222.45 943.513H1362.42Z" fill="#5D74E4"/>
    <path d="M1260.08 837.84C1259.89 837.84 1259.7 837.746 1259.6 837.569C1259.43 837.302 1259.52 836.958 1259.79 836.794C1262.46 835.17 1261.78 832.505 1261.75 832.393C1261.67 832.091 1261.85 831.781 1262.15 831.699C1262.44 831.617 1262.75 831.794 1262.84 832.091C1263.18 833.323 1263.1 836.096 1260.38 837.754C1260.28 837.815 1260.18 837.84 1260.08 837.84ZM1273.69 863.943C1273.5 863.943 1273.32 863.848 1273.21 863.672C1273.05 863.405 1273.13 863.056 1273.4 862.897C1276.07 861.273 1275.39 858.607 1275.36 858.495C1275.28 858.194 1275.46 857.884 1275.76 857.802C1276.06 857.72 1276.37 857.897 1276.45 858.194C1276.79 859.425 1276.72 862.195 1273.99 863.857C1273.89 863.917 1273.8 863.943 1273.69 863.943ZM1301.83 841.863C1301.64 841.863 1301.45 841.768 1301.35 841.592C1301.18 841.325 1301.27 840.976 1301.54 840.816C1304.21 839.193 1303.53 836.527 1303.5 836.415C1303.42 836.114 1303.6 835.803 1303.9 835.722C1304.19 835.64 1304.5 835.816 1304.59 836.114C1304.93 837.345 1304.85 840.114 1302.13 841.777C1302.03 841.837 1301.93 841.863 1301.83 841.863ZM1262.59 878.978C1262.59 879.167 1262.5 879.352 1262.32 879.46C1262.06 879.624 1261.71 879.538 1261.55 879.271C1259.92 876.6 1257.26 877.277 1257.15 877.307C1256.84 877.389 1256.53 877.208 1256.45 876.911C1256.37 876.613 1256.55 876.303 1256.84 876.217C1258.08 875.877 1260.85 875.954 1262.51 878.681C1262.57 878.775 1262.59 878.879 1262.59 878.978ZM1236.47 903.082C1236.28 903.082 1236.09 902.987 1235.98 902.811C1235.82 902.544 1235.91 902.195 1236.17 902.036C1238.84 900.412 1238.17 897.746 1238.14 897.634C1238.05 897.333 1238.24 897.023 1238.53 896.941C1238.83 896.859 1239.14 897.036 1239.23 897.333C1239.57 898.565 1239.49 901.334 1236.76 902.996C1236.67 903.056 1236.56 903.082 1236.47 903.082ZM1256.69 849.537C1256.68 849.348 1256.75 849.154 1256.92 849.029C1257.17 848.844 1257.52 848.891 1257.71 849.141C1259.58 851.643 1262.16 850.717 1262.27 850.679C1262.56 850.571 1262.89 850.717 1263 851.01C1263.11 851.299 1262.96 851.626 1262.67 851.738C1261.47 852.195 1258.71 852.38 1256.8 849.822C1256.74 849.736 1256.71 849.636 1256.69 849.537ZM1288.88 829.615C1288.86 829.425 1288.94 829.232 1289.1 829.107C1289.35 828.921 1289.7 828.973 1289.89 829.223C1291.76 831.725 1294.35 830.799 1294.46 830.76C1294.75 830.653 1295.08 830.799 1295.19 831.092C1295.3 831.381 1295.15 831.708 1294.86 831.82C1293.67 832.276 1290.9 832.461 1288.99 829.903C1288.93 829.813 1288.89 829.714 1288.88 829.615ZM1269.05 901.196C1269.03 901.006 1269.11 900.812 1269.27 900.688C1269.52 900.502 1269.87 900.554 1270.06 900.804C1271.93 903.306 1274.52 902.38 1274.62 902.341C1274.92 902.234 1275.24 902.38 1275.35 902.673C1275.46 902.962 1275.32 903.289 1275.02 903.401C1273.83 903.857 1271.06 904.043 1269.15 901.484C1269.09 901.394 1269.05 901.295 1269.05 901.196ZM1296.65 859.934C1296.63 859.744 1296.71 859.55 1296.88 859.425C1297.13 859.24 1297.48 859.292 1297.67 859.537C1299.54 862.04 1302.13 861.114 1302.23 861.075C1302.53 860.967 1302.85 861.114 1302.96 861.407C1303.07 861.695 1302.93 862.022 1302.63 862.134C1301.44 862.591 1298.68 862.776 1296.76 860.218C1296.69 860.132 1296.66 860.033 1296.65 859.934ZM1234.18 881.42C1234.17 881.23 1234.24 881.036 1234.41 880.911C1234.66 880.726 1235.01 880.778 1235.2 881.028C1237.06 883.53 1239.65 882.604 1239.76 882.565C1240.05 882.458 1240.38 882.604 1240.49 882.897C1240.6 883.185 1240.45 883.513 1240.16 883.625C1238.96 884.081 1236.2 884.266 1234.29 881.708C1234.23 881.618 1234.19 881.519 1234.18 881.42ZM1283.14 844.714C1282.1 844.714 1281.4 844.102 1280.49 843.314C1280.08 842.957 1279.61 842.552 1279.03 842.121C1277.7 841.152 1277.52 841.32 1276.62 842.126C1276.13 842.569 1275.45 843.172 1274.41 843.71C1273.44 844.206 1272.53 844.288 1271.7 843.956C1270.22 843.362 1269.61 841.656 1269.59 841.583C1269.49 841.29 1269.65 840.967 1269.94 840.864C1270.23 840.76 1270.56 840.915 1270.66 841.208C1270.66 841.221 1271.13 842.509 1272.13 842.909C1272.65 843.116 1273.23 843.052 1273.9 842.707C1274.82 842.238 1275.4 841.712 1275.87 841.29C1276.97 840.308 1277.74 839.779 1279.7 841.213C1280.32 841.669 1280.81 842.091 1281.24 842.462C1282.58 843.624 1282.98 843.978 1284.7 843.09C1284.97 842.948 1285.31 843.056 1285.46 843.331C1285.6 843.607 1285.49 843.947 1285.22 844.094C1284.36 844.533 1283.7 844.714 1283.14 844.714ZM1293.36 899.116C1292.33 899.116 1291.62 898.504 1290.72 897.716C1290.3 897.359 1289.84 896.954 1289.25 896.523C1287.93 895.554 1287.74 895.722 1286.85 896.527C1286.35 896.971 1285.68 897.574 1284.63 898.112C1283.66 898.607 1282.75 898.689 1281.92 898.353C1280.45 897.759 1279.84 896.054 1279.82 895.98C1279.71 895.688 1279.87 895.365 1280.17 895.261C1280.46 895.158 1280.78 895.313 1280.88 895.606C1280.89 895.619 1281.35 896.906 1282.35 897.307C1282.87 897.514 1283.45 897.449 1284.12 897.105C1285.04 896.635 1285.63 896.11 1286.1 895.688C1287.19 894.706 1287.96 894.176 1289.92 895.61C1290.55 896.067 1291.04 896.489 1291.46 896.859C1292.8 898.022 1293.21 898.375 1294.92 897.488C1295.2 897.346 1295.54 897.453 1295.68 897.729C1295.82 898.005 1295.72 898.345 1295.44 898.491C1294.59 898.931 1293.93 899.116 1293.36 899.116ZM1243.18 868.96C1243.14 868.96 1243.09 868.956 1243.04 868.943C1241.54 868.556 1240.89 867.625 1240.6 866.915C1240.07 865.58 1240.43 864.021 1241.03 863.065C1242.08 861.376 1242.46 859.981 1240.9 858.663C1240.1 857.991 1239.99 857.298 1240.03 856.833C1240.17 855.386 1241.94 854.335 1242.15 854.219C1242.42 854.064 1242.76 854.158 1242.92 854.43C1243.07 854.701 1242.98 855.046 1242.71 855.201C1242.33 855.42 1241.22 856.204 1241.16 856.936C1241.15 857.044 1241.12 857.371 1241.63 857.798C1244.25 860.02 1242.61 862.664 1241.99 863.659C1241.56 864.348 1241.27 865.532 1241.66 866.493C1241.93 867.173 1242.49 867.63 1243.33 867.845C1243.63 867.923 1243.81 868.233 1243.73 868.534C1243.67 868.792 1243.43 868.96 1243.18 868.96ZM1254.74 937.393C1254.69 937.393 1254.64 937.389 1254.6 937.376C1253.1 936.989 1252.44 936.058 1252.16 935.348C1251.63 934.013 1251.99 932.454 1252.58 931.497C1253.63 929.809 1254.01 928.414 1252.45 927.096C1251.66 926.424 1251.54 925.731 1251.59 925.266C1251.72 923.819 1253.5 922.768 1253.7 922.652C1253.97 922.497 1254.32 922.591 1254.47 922.863C1254.63 923.134 1254.53 923.478 1254.26 923.634C1253.88 923.853 1252.78 924.637 1252.71 925.369C1252.71 925.477 1252.68 925.804 1253.18 926.23C1255.81 928.453 1254.17 931.097 1253.55 932.092C1253.12 932.781 1252.83 933.965 1253.21 934.926C1253.49 935.606 1254.05 936.063 1254.89 936.278C1255.19 936.355 1255.37 936.666 1255.29 936.967C1255.22 937.225 1254.99 937.393 1254.74 937.393ZM1249.26 920.567C1249.21 920.567 1249.16 920.563 1249.11 920.55C1247.62 920.162 1246.96 919.232 1246.68 918.522C1246.14 917.187 1246.5 915.628 1247.1 914.671C1248.15 912.983 1248.53 911.588 1246.97 910.27C1246.18 909.598 1246.06 908.905 1246.1 908.44C1246.24 906.993 1248.02 905.942 1248.22 905.826C1248.49 905.67 1248.83 905.765 1248.99 906.037C1249.14 906.308 1249.05 906.652 1248.78 906.807C1248.4 907.027 1247.3 907.811 1247.23 908.543C1247.22 908.651 1247.19 908.978 1247.7 909.404C1250.33 911.627 1248.68 914.271 1248.06 915.266C1247.63 915.955 1247.34 917.139 1247.73 918.1C1248 918.78 1248.57 919.236 1249.4 919.452C1249.7 919.529 1249.89 919.839 1249.81 920.141C1249.73 920.395 1249.51 920.567 1249.26 920.567ZM1289.29 874.357C1289.32 874.395 1289.34 874.439 1289.36 874.486C1289.88 875.946 1289.48 877.01 1289.05 877.643C1288.25 878.831 1286.75 879.413 1285.63 879.456C1283.64 879.533 1282.27 880.003 1282.06 882.04C1281.95 883.073 1281.44 883.56 1281.03 883.784C1279.76 884.486 1277.89 883.607 1277.68 883.504C1277.4 883.366 1277.28 883.03 1277.42 882.75C1277.56 882.47 1277.9 882.354 1278.18 882.492C1278.57 882.686 1279.84 883.151 1280.48 882.798C1280.58 882.746 1280.86 882.587 1280.94 881.924C1281.3 878.5 1284.41 878.375 1285.58 878.332C1286.4 878.297 1287.53 877.875 1288.12 877.014C1288.52 876.407 1288.58 875.683 1288.3 874.869C1288.19 874.576 1288.34 874.253 1288.64 874.146C1288.88 874.055 1289.15 874.15 1289.29 874.357ZM1279.63 925.985C1279.63 926.032 1279.62 926.08 1279.61 926.127C1279.22 927.626 1278.29 928.28 1277.58 928.565C1276.25 929.099 1274.69 928.737 1273.73 928.143C1272.04 927.092 1270.65 926.713 1269.33 928.272C1268.66 929.064 1267.96 929.181 1267.5 929.137C1266.05 929.004 1265 927.225 1264.89 927.023C1264.73 926.752 1264.83 926.407 1265.1 926.252C1265.37 926.097 1265.71 926.192 1265.87 926.463C1266.09 926.842 1266.87 927.945 1267.6 928.013C1267.71 928.022 1268.04 928.052 1268.46 927.544C1270.69 924.917 1273.33 926.562 1274.33 927.182C1275.01 927.613 1276.2 927.901 1277.16 927.514C1277.84 927.243 1278.3 926.678 1278.51 925.843C1278.59 925.541 1278.9 925.361 1279.2 925.438C1279.45 925.507 1279.63 925.735 1279.63 925.985ZM1254.83 902.923C1253.22 902.923 1251.91 901.614 1251.91 900.003C1251.91 898.397 1253.22 897.087 1254.83 897.087C1256.44 897.087 1257.75 898.397 1257.75 900.003C1257.75 901.614 1256.44 902.923 1254.83 902.923ZM1254.83 898.216C1253.85 898.216 1253.05 899.017 1253.05 900.003C1253.05 900.989 1253.85 901.79 1254.83 901.79C1255.82 901.79 1256.62 900.989 1256.62 900.003C1256.62 899.017 1255.82 898.216 1254.83 898.216ZM1298.66 854.757C1297.05 854.757 1295.74 853.448 1295.74 851.837C1295.74 850.226 1297.05 848.917 1298.66 848.917C1300.27 848.917 1301.58 850.226 1301.58 851.837C1301.57 853.448 1300.26 854.757 1298.66 854.757ZM1298.66 850.05C1297.67 850.05 1296.87 850.851 1296.87 851.837C1296.87 852.823 1297.67 853.624 1298.66 853.624C1299.64 853.624 1300.45 852.823 1300.45 851.837C1300.45 850.851 1299.64 850.05 1298.66 850.05ZM1253.43 860.7C1251.82 860.7 1250.51 859.391 1250.51 857.78C1250.51 856.17 1251.82 854.865 1253.43 854.865C1255.04 854.865 1256.35 856.174 1256.35 857.78C1256.35 859.391 1255.04 860.7 1253.43 860.7ZM1253.43 855.993C1252.45 855.993 1251.65 856.794 1251.65 857.78C1251.65 858.767 1252.45 859.568 1253.43 859.568C1254.42 859.568 1255.22 858.767 1255.22 857.78C1255.22 856.794 1254.42 855.993 1253.43 855.993ZM1232.57 937.398C1230.96 937.398 1229.65 936.088 1229.65 934.478C1229.65 932.871 1230.96 931.562 1232.57 931.562C1234.18 931.562 1235.49 932.871 1235.49 934.478C1235.49 936.088 1234.18 937.398 1232.57 937.398ZM1232.57 932.695C1231.59 932.695 1230.79 933.496 1230.79 934.482C1230.79 935.468 1231.59 936.269 1232.57 936.269C1233.56 936.269 1234.36 935.468 1234.36 934.482C1234.36 933.496 1233.56 932.695 1232.57 932.695ZM1278.08 830.545C1276.47 830.545 1275.16 829.236 1275.16 827.625C1275.16 826.019 1276.47 824.709 1278.08 824.709C1279.69 824.709 1281 826.019 1281 827.625C1281 829.236 1279.69 830.545 1278.08 830.545ZM1278.08 825.838C1277.09 825.838 1276.29 826.639 1276.29 827.625C1276.29 828.611 1277.09 829.412 1278.08 829.412C1279.07 829.412 1279.87 828.611 1279.87 827.625C1279.87 826.639 1279.07 825.838 1278.08 825.838ZM1300.45 927.286C1298.83 927.286 1297.53 925.976 1297.53 924.366C1297.53 922.755 1298.83 921.446 1300.45 921.446C1302.06 921.446 1303.37 922.755 1303.37 924.366C1303.37 925.976 1302.06 927.286 1300.45 927.286ZM1300.45 922.578C1299.46 922.578 1298.66 923.38 1298.66 924.366C1298.66 925.352 1299.46 926.153 1300.45 926.153C1301.43 926.153 1302.23 925.352 1302.23 924.366C1302.23 923.38 1301.43 922.578 1300.45 922.578Z" fill="#A0C5FF"/>
    <path d="M1282.39 781.531L1279.18 800.51C1279.18 800.51 1282.7 818.357 1306.98 804.783L1301.05 777.655L1282.39 781.531Z" fill="#FECECC"/>
    <path opacity="0.1" d="M1301.05 777.659L1282.39 781.531L1281 789.765C1281.44 789.894 1281.89 790.019 1282.34 790.136C1284.48 790.7 1286.66 791.174 1288.75 791.832C1290.39 792.349 1292.02 793.012 1293.23 793.99C1294.5 795.019 1295.13 796.303 1295.21 797.681C1295.36 799.938 1293.76 801.91 1292.62 803.93C1291.9 805.226 1291.5 806.97 1289.9 807.87C1288.74 808.525 1287.22 808.762 1285.71 808.74C1289.84 810.653 1296.46 810.674 1306.98 804.791L1301.05 777.659Z" fill="#201135"/>
    <path d="M1265.61 729.196C1265.61 729.196 1254.42 790.166 1277.23 791.6C1300.04 793.034 1315.68 768.788 1315.68 768.788C1315.68 768.788 1325.15 767.28 1325.8 755.876C1326.32 746.681 1320.64 748.344 1320.64 748.344C1320.64 748.344 1325.01 724.885 1308.66 720.294C1292.3 715.712 1265.61 729.196 1265.61 729.196Z" fill="#FECECC"/>
    <path opacity="0.1" d="M1299.16 760.717C1299.41 762.198 1297.79 763.71 1295.55 764.089C1293.3 764.468 1291.29 763.572 1291.04 762.086C1290.79 760.605 1292.4 759.093 1294.64 758.714C1296.89 758.339 1298.91 759.235 1299.16 760.717ZM1273.74 760.859C1273.99 762.34 1272.38 763.852 1270.14 764.227C1267.89 764.606 1265.87 763.71 1265.62 762.224C1265.37 760.743 1266.99 759.231 1269.23 758.856C1271.47 758.477 1273.49 759.373 1273.74 760.859Z" fill="#201135"/>
    <path d="M1274.82 746.914C1274.61 746.914 1274.39 746.802 1274.28 746.599C1274.17 746.423 1271.75 742.418 1265.8 745.053C1265.48 745.195 1265.11 745.049 1264.97 744.735C1264.83 744.42 1264.97 744.045 1265.29 743.908C1272.31 740.798 1275.33 745.928 1275.36 745.975C1275.54 746.276 1275.43 746.66 1275.13 746.832C1275.03 746.888 1274.92 746.914 1274.82 746.914ZM1286.99 747.026C1286.91 747.026 1286.83 747.013 1286.75 746.983C1286.43 746.853 1286.27 746.492 1286.4 746.169C1286.42 746.113 1288.71 740.639 1296.95 742.405C1297.29 742.478 1297.51 742.809 1297.44 743.15C1297.36 743.486 1297.03 743.705 1296.69 743.632C1289.46 742.082 1287.59 746.586 1287.57 746.634C1287.47 746.875 1287.24 747.026 1286.99 747.026ZM1279.84 762.724C1279.63 762.724 1279.41 762.693 1279.2 762.633C1277.87 762.246 1277.31 760.747 1277.28 760.687C1277.22 760.501 1277.24 760.295 1277.35 760.127C1279.6 756.673 1279 752.009 1278.99 751.961C1278.95 751.617 1279.19 751.302 1279.53 751.255C1279.89 751.203 1280.19 751.449 1280.24 751.793C1280.27 751.996 1280.87 756.72 1278.58 760.514C1278.77 760.842 1279.1 761.298 1279.55 761.432C1279.98 761.552 1280.49 761.384 1281.09 760.932C1281.36 760.721 1281.75 760.773 1281.97 761.048C1282.18 761.324 1282.12 761.716 1281.85 761.927C1281.16 762.457 1280.48 762.724 1279.84 762.724Z" fill="#000141"/>
    <path d="M1271.79 770.893C1271.79 770.893 1278.95 774.136 1286.96 770.407C1288.78 773.74 1279.28 782.409 1271.79 770.893Z" fill="#FCFAF7"/>
    <path d="M1272.92 751.97C1272.92 753.925 1271.83 755.51 1270.5 755.51C1269.16 755.51 1268.08 753.925 1268.08 751.97C1268.08 750.015 1269.16 748.434 1270.5 748.434C1271.83 748.434 1272.92 750.019 1272.92 751.97ZM1294.7 751.97C1294.7 753.925 1293.62 755.51 1292.28 755.51C1290.94 755.51 1289.86 753.925 1289.86 751.97C1289.86 750.015 1290.94 748.434 1292.28 748.434C1293.62 748.434 1294.7 750.019 1294.7 751.97Z" fill="#000141"/>
    <path opacity="0.1" d="M1281.07 779.778C1280.41 779.778 1279.98 779.679 1279.93 779.67C1279.76 779.632 1279.66 779.464 1279.7 779.296C1279.74 779.128 1279.91 779.024 1280.08 779.063C1280.11 779.072 1282.86 779.683 1285.35 777.517C1285.49 777.409 1285.69 777.422 1285.8 777.552C1285.91 777.681 1285.9 777.879 1285.77 777.995C1284.03 779.494 1282.21 779.778 1281.07 779.778ZM1319.55 752.078C1319.55 752.078 1323.21 750.355 1323.93 752.939C1324.65 755.523 1322.35 762.048 1318.84 763.555C1318.84 763.555 1325.22 757.388 1323.14 753.654C1321.06 749.924 1319.77 753.869 1319.55 752.078Z" fill="#201135"/>
    <path d="M1305.98 799.408C1305.98 799.408 1311.44 804.447 1308.49 812.186C1305.98 818.753 1302.72 824.529 1293.53 822.935C1284.34 821.342 1284.02 812.186 1284.02 812.186C1284.02 812.186 1276.07 822.72 1269.45 817.186C1258.19 807.78 1279.49 798.68 1279.49 798.68C1279.49 798.68 1279.18 804.029 1287.25 806.423C1295.31 808.822 1305.98 799.408 1305.98 799.408Z" fill="#A0C5FF"/>
    <path d="M1299.88 724.11C1299.88 724.11 1293.29 736.104 1286.22 735.592C1279.15 735.079 1278.49 733.766 1278.49 733.766C1278.49 733.766 1274.39 740.045 1263.92 739.532C1253.45 739.02 1252.59 731.836 1252.59 731.836C1252.59 731.836 1244.82 729.399 1247.11 720.682C1249.39 711.965 1256.74 714.683 1256.74 714.683C1256.74 714.683 1252.82 709.368 1260.33 703.546C1267.84 697.719 1275.11 708.171 1275.11 708.171C1275.11 708.171 1277.12 705.152 1287.48 701.78C1297.83 698.404 1304.93 709.545 1304.93 709.545C1304.93 709.545 1319.25 704.92 1322.16 718.628C1322.16 718.628 1331.76 724.282 1327.48 732.68C1327.48 732.68 1334.72 749.472 1319.84 749.558C1319.84 749.558 1317.37 758.016 1311.37 757.517C1305.37 757.017 1308.83 748.688 1307.53 745.398C1306.22 742.103 1296.63 739.192 1299.88 724.11Z" fill="#000141"/>
    <path d="M1357.72 884.051C1357.72 884.051 1375.86 934.508 1367.18 943.518H1295.74C1295.74 943.518 1325.1 933.642 1325.83 922.578C1326.56 911.515 1315.92 894.732 1315.92 894.732L1357.72 884.051Z" fill="#FECECC"/>
    <path d="M1311.35 903.392C1311.35 903.392 1344.8 913.371 1362.95 890.098C1362.95 890.098 1354.64 832.474 1320.45 807.556C1300.05 812.336 1311.35 903.392 1311.35 903.392Z" fill="#A0C5FF"/>
    <path opacity="0.1" d="M1195.02 578.351H877.406C868.857 578.351 861.928 585.289 861.941 593.838L862.139 752.345C862.147 760.88 869.072 767.793 877.604 767.793H1146.26L1178.38 778.779L1185.1 767.793H1195.03C1216.01 767.793 1233.02 750.781 1233.02 729.795V616.353C1233.02 595.366 1216.01 578.351 1195.02 578.351Z" fill="#000141"/>
    <path d="M1178.38 752.612V778.779L1124.65 755.764L1178.38 752.612Z" fill="white"/>
    <path d="M883.887 572.722H1188.29C1209.28 572.722 1226.29 589.733 1226.29 610.72V724.153C1226.29 745.139 1209.28 762.151 1188.29 762.151H883.887C862.901 762.151 845.89 745.139 845.89 724.153V610.72C845.89 589.733 862.901 572.722 883.887 572.722Z" fill="white"/>
    <path d="M900.92 662.115C889.628 662.115 880.477 671.267 880.477 682.559C880.477 693.851 889.628 703.003 900.92 703.003C912.212 703.003 921.364 693.851 921.364 682.559C921.364 671.267 912.212 662.115 900.92 662.115ZM900.92 699.635C891.484 699.635 883.818 691.991 883.818 682.555C883.818 673.119 891.48 665.475 900.92 665.475C910.356 665.475 918.001 673.119 918.001 682.555C918.001 691.991 910.356 699.635 900.92 699.635Z" fill="#A0C5FF"/>
    <path d="M903.603 682.555C903.603 684.041 902.402 685.242 900.916 685.242C899.43 685.242 898.224 684.041 898.224 682.555C898.224 681.069 899.43 679.868 900.916 679.868C902.402 679.868 903.603 681.069 903.603 682.555Z" fill="#A0C5FF"/>
    <path d="M900.912 668.076C899.96 668.076 899.185 668.847 899.185 669.803V681.788C899.185 682.74 899.956 683.515 900.912 683.515C901.863 683.515 902.639 682.744 902.639 681.788V669.803C902.639 668.847 901.863 668.076 900.912 668.076Z" fill="#A0C5FF"/>
    <path d="M911.002 673.016C910.33 672.344 909.236 672.344 908.56 673.016L900.085 681.491C899.413 682.163 899.413 683.257 900.085 683.933C900.757 684.605 901.851 684.605 902.527 683.933L911.002 675.458C911.674 674.782 911.674 673.688 911.002 673.016Z" fill="#A0C5FF"/>
    <path d="M998.901 666.857H945.115C943.793 666.857 942.566 667.762 942.355 669.066C942.083 670.733 943.362 672.167 944.973 672.167H998.906C1000.37 672.167 1001.56 670.979 1001.56 669.51C1001.55 668.046 1000.37 666.857 998.901 666.857ZM1101.62 666.857H1007.82C1006.35 666.857 1005.16 668.046 1005.16 669.514C1005.16 670.983 1006.35 672.172 1007.82 672.172H1101.77C1103.38 672.172 1104.66 670.733 1104.38 669.071C1104.17 667.762 1102.95 666.857 1101.62 666.857ZM1022.08 679.898H945.111C943.789 679.898 942.561 680.802 942.346 682.107C942.075 683.769 943.354 685.212 944.964 685.212H1022.08C1023.55 685.212 1024.74 684.024 1024.74 682.555C1024.74 681.091 1023.55 679.898 1022.08 679.898ZM1022.08 692.943H945.111C943.789 692.943 942.561 693.847 942.346 695.152C942.075 696.819 943.354 698.257 944.964 698.257H1022.08C1023.55 698.257 1024.74 697.068 1024.74 695.6C1024.74 694.131 1023.55 692.943 1022.08 692.943ZM1101.62 679.898H1031.01C1029.54 679.898 1028.35 681.086 1028.35 682.555C1028.35 684.024 1029.54 685.212 1031.01 685.212H1101.77C1103.38 685.212 1104.66 683.774 1104.38 682.107C1104.17 680.802 1102.95 679.898 1101.62 679.898Z" fill="#A0C5FF"/>
    <path d="M852.617 630.612V610.72C852.617 593.476 866.644 579.449 883.883 579.449H1188.29C1205.53 579.449 1219.55 593.476 1219.55 610.72V630.612H852.617Z" fill="#5D74E4"/>
    <path d="M921.153 610.272L919.28 616.056H913.112L921.157 593.764H928.263L936.308 616.056H929.977L928.104 610.272H921.153ZM922.574 605.75H926.709L924.641 598.902L922.574 605.75ZM958.233 601C958.233 605.392 955.292 607.688 952.062 608.075C950.869 608.205 949.965 608.235 948.574 608.235H945.99V616.051H940.176V593.76H948.578C949.969 593.76 950.873 593.795 952.066 593.924C955.296 594.311 958.233 596.607 958.233 601ZM952.161 601C952.161 599.32 951.291 598.446 949.801 598.321C949.383 598.286 948.866 598.286 948.251 598.286H945.99V603.713H948.251C948.866 603.713 949.383 603.713 949.801 603.678C951.291 603.553 952.161 602.679 952.161 601ZM980.809 601C980.809 605.392 977.868 607.688 974.638 608.075C973.445 608.205 972.54 608.235 971.149 608.235H968.565V616.051H962.751V593.76H971.153C972.544 593.76 973.449 593.795 974.642 593.924C977.868 594.311 980.809 596.607 980.809 601ZM974.732 601C974.732 599.32 973.858 598.446 972.372 598.321C971.954 598.286 971.438 598.286 970.822 598.286H968.561V603.713H970.822C971.438 603.713 971.954 603.713 972.372 603.678C973.862 603.553 974.732 602.679 974.732 601ZM1007.29 604.91C1007.29 612.05 1002.83 616.508 995.891 616.508C988.944 616.508 984.487 612.05 984.487 604.91C984.487 597.739 988.944 593.312 995.891 593.312C1002.83 593.312 1007.29 597.739 1007.29 604.91ZM1001.35 604.91C1001.35 600.16 999.25 597.576 995.887 597.576C992.527 597.576 990.426 600.16 990.426 604.91C990.426 609.626 992.527 612.244 995.887 612.244C999.25 612.244 1001.35 609.626 1001.35 604.91ZM1012.55 616.056V593.764H1018.36V616.056H1012.55ZM1038.2 616.056L1030.09 601.323C1030.28 603.584 1030.28 605.556 1030.28 606.848V616.056H1024.47V593.764H1031.7L1040.17 609.144C1040 606.883 1039.97 604.587 1039.97 603.295V593.764H1045.79V616.056H1038.2ZM1062.8 598.286V616.056H1056.99V598.286H1049.75V593.764H1070.04V598.286H1062.8ZM1099.56 616.056H1093.75V606.684C1093.75 604.746 1093.75 601.87 1093.81 599.609C1093.42 601.87 1092.78 604.712 1092.26 606.684L1089.81 616.056H1083.83L1081.34 606.684C1080.82 604.746 1080.18 601.87 1079.82 599.609C1079.89 601.87 1079.89 604.746 1079.89 606.684V616.056H1074.07V593.764H1083.15L1086.93 610.401L1090.72 593.764H1099.57V616.056H1099.56ZM1122.74 616.056H1105.65V593.764H1122.42V598.286H1111.47V602.615H1121.77V607.137H1111.47V611.534H1122.74V616.056ZM1141.8 616.056L1133.69 601.323C1133.89 603.584 1133.89 605.556 1133.89 606.848V616.056H1128.07V593.764H1135.31L1143.77 609.144C1143.61 606.883 1143.58 604.587 1143.58 603.295V593.764H1149.39V616.056H1141.8ZM1166.41 598.286V616.056H1160.6V598.286H1153.36V593.764H1173.65V598.286H1166.41Z" fill="white"/>
    <path d="M1190.15 651.03H1141C1131.97 651.03 1124.65 658.351 1124.65 667.383V716.203C1124.65 725.234 1131.97 732.555 1141 732.555H1190.15C1199.18 732.555 1206.5 725.234 1206.5 716.203V667.383C1206.5 658.351 1199.18 651.03 1190.15 651.03Z" fill="#E7F0FE"/>
    <path d="M1203.61 675.944V667.383C1203.61 659.962 1197.57 653.924 1190.15 653.924H1141C1133.58 653.924 1127.54 659.962 1127.54 667.383V675.944H1203.61Z" fill="#A0C5FF"/>
    <path d="M1151.51 667.71L1150.9 669.592H1148.89L1151.51 662.331H1153.82L1156.44 669.592H1154.38L1153.77 667.71H1151.51ZM1151.98 666.237H1153.33L1152.65 664.006L1151.98 666.237ZM1163.59 664.691C1163.59 666.121 1162.63 666.87 1161.58 666.995C1161.19 667.038 1160.89 667.047 1160.44 667.047H1159.6V669.592H1157.7V662.331H1160.44C1160.89 662.331 1161.18 662.339 1161.57 662.383C1162.63 662.512 1163.59 663.257 1163.59 664.691ZM1161.61 664.691C1161.61 664.144 1161.33 663.86 1160.84 663.817C1160.71 663.808 1160.54 663.808 1160.34 663.808H1159.6V665.578H1160.34C1160.54 665.578 1160.71 665.578 1160.84 665.569C1161.33 665.522 1161.61 665.238 1161.61 664.691ZM1171.27 669.592H1169.2C1169.04 669.075 1168.93 668.657 1168.87 668.141C1168.77 667.34 1168.46 666.879 1167.97 666.844C1167.76 666.831 1167.58 666.831 1167.37 666.831H1166.95V669.588H1165.06V662.327H1167.94C1168.39 662.327 1168.69 662.335 1169.07 662.378C1170.13 662.503 1171.04 663.02 1171.04 664.303C1171.04 665.221 1170.55 665.828 1169.58 666.112C1170.34 666.388 1170.61 666.943 1170.72 667.818C1170.81 668.649 1170.98 669.161 1171.27 669.592ZM1167.64 665.47C1167.83 665.47 1168.01 665.47 1168.14 665.462C1168.62 665.419 1169.07 665.251 1169.07 664.644C1169.07 664.036 1168.68 663.864 1168.19 663.821C1168.05 663.812 1167.89 663.812 1167.69 663.812H1166.95V665.475H1167.64V665.47ZM1172.81 669.592V662.331H1174.71V669.592H1172.81ZM1182.26 669.592H1176.7V662.331H1178.59V667.994H1182.27V669.592H1182.26Z" fill="white"/>
    <path d="M1161.64 708.464V714.088H1140.16V710.957L1148.87 702.766C1153.01 698.869 1154.41 696.944 1154.41 694.295C1154.41 692.206 1153.25 691.043 1151.28 691.043C1149.2 691.043 1148.15 692.37 1147.87 695.26L1147.83 695.66H1140.6L1140.64 695.26C1141.25 689.157 1145.1 685.742 1151.89 685.742C1158.35 685.742 1161.97 688.834 1161.97 694.015C1161.97 697.267 1160.48 699.76 1155.14 704.898L1151.45 708.473H1161.64V708.464ZM1191 705.854C1191 711.156 1186.66 714.648 1179.67 714.648C1172.64 714.648 1168.55 711.233 1167.98 705.695L1167.94 705.294H1175.17L1175.25 705.695C1175.65 707.624 1177.02 709.351 1179.39 709.351C1181.88 709.351 1183.45 707.947 1183.45 706.056C1183.45 703.688 1181.72 702.482 1178.83 702.361L1177.74 702.323V697.663L1178.83 697.581C1181.48 697.379 1182.8 695.936 1182.8 694.045C1182.8 692.236 1181.72 691.112 1179.71 691.112C1177.58 691.112 1176.7 692.839 1176.54 694.648L1176.5 695.049H1169.27L1169.31 694.648C1169.79 689.988 1173.24 685.811 1180.43 685.811C1187.22 685.811 1190.35 689.265 1190.35 693.201C1190.35 696.453 1188.7 698.623 1185.09 699.506C1189.03 700.268 1191 702.28 1191 705.854Z" fill="#A0C5FF"/>
    <path d="M663.054 415.012C658.61 443.979 660.066 461.632 662.533 475.689C666.836 500.465 674.265 514.337 658.218 559.716C633.041 630.858 560.775 578.553 497.071 639.889C426.993 707.443 360.571 735.023 304.998 735.432C239.679 735.927 189.265 698.774 165.234 644.648C120.776 544.35 161.401 513.824 250.144 484.857C338.836 455.895 298.822 373.311 345.993 343.539C393.173 313.823 450.486 322.139 472.941 303.168C495.387 284.197 563.799 258.215 625.612 282.931C677.258 303.504 675.264 335.141 663.054 415.012Z" fill="#000141"/>
    <path opacity="0.5" d="M658.218 559.716C633.041 630.858 560.775 578.553 497.071 639.889C426.993 707.443 360.571 735.023 304.998 735.432C305.196 733.998 305.343 732.568 305.549 731.19C311.764 686.065 324.994 638.976 345.705 598.373C365.89 558.76 396.015 527.063 431.343 500.564C449.125 487.166 467.829 475.06 486.335 462.708C496.089 456.171 506.033 449.883 516.671 444.806C526.804 440.012 538.204 436.683 547.067 429.551C561.348 418.057 565.866 400.468 567.692 383.052C569.285 367.673 569.595 351.532 580.254 340.166C606.529 336.114 606.831 375.705 608.416 393.505C609.691 407.984 612.051 422.488 616.4 436.416C621.917 454.048 633.024 466.968 650.78 472.816C654.626 474.069 658.541 475.038 662.525 475.68C666.836 500.465 674.269 514.332 658.218 559.716Z" fill="black"/>
    <path d="M639.592 527.485L636.056 474.478C636.056 474.478 732.568 497.325 764.657 704.816C776.501 781.423 752.736 812.194 715.458 818.189C678.175 824.188 584.298 691.758 639.592 527.485Z" fill="#5D74E4"/>
    <path d="M810.162 428.97C810.045 429.801 809.864 430.538 809.671 431.102C809.628 431.218 809.593 431.321 809.554 431.412C808.585 433.798 807.5 436.123 806.423 438.242C803.542 443.949 800.751 448.212 800.751 448.212C800.751 448.212 799.993 485.417 798.111 489.896C794.498 493.686 774.438 488.716 774.438 488.716C771.72 485.047 777.082 447.997 776.63 440.663C776.186 433.32 778.774 424.999 778.774 424.999C778.774 424.999 779.283 387.079 787.853 387.213C791.664 387.268 790.032 406.412 790.239 413.763C790.243 413.823 790.239 413.884 790.243 413.944C790.252 413.927 792.87 411.821 795.515 413.375C796.811 414.129 797.186 415.081 797.186 415.081C797.186 415.081 799.063 414.392 800.433 414.805C801.811 415.219 803.667 416.601 803.637 417.29C803.663 417.29 805.291 416.593 806.755 417.652C808.219 418.703 808.663 421.377 808.663 421.377H808.646C808.835 421.649 809.012 421.92 809.167 422.2C810.342 424.345 810.442 426.95 810.162 428.97Z" fill="#FECECC"/>
    <path opacity="0.2" d="M810.162 428.97C809.912 428.694 809.619 428.466 809.257 428.328C807.651 427.717 806.613 429.103 806.031 430.288C805.691 430.981 805.463 431.761 805.037 432.411C804.679 432.984 804.042 433.449 803.456 433.793C798.473 436.825 788.641 434.254 788.564 427.799C788.529 425.154 788.736 422.407 789.08 419.805C789.369 417.63 789.524 415.994 790.243 413.944C790.252 413.927 792.87 411.821 795.515 413.375C796.811 414.129 797.186 415.081 797.186 415.081C797.186 415.081 799.063 414.392 800.433 414.805C801.811 415.219 803.667 416.601 803.637 417.29C803.663 417.29 805.291 416.593 806.755 417.652C808.219 418.703 808.663 421.377 808.663 421.377H808.646C808.835 421.649 809.012 421.92 809.167 422.2C810.342 424.345 810.442 426.95 810.162 428.97Z" fill="white"/>
    <path opacity="0.1" d="M806.548 429.004C805.084 435.525 801.527 436.954 799.95 437.265C795.743 436.244 791.845 434.581 790.002 432.833C788.714 431.614 788.297 428.823 788.353 425.662C788.318 425.835 788.284 426.007 788.249 426.183C787.732 429.086 787.297 432.437 788.611 435.197C789.907 437.923 792.788 439.159 795.674 439.271C797.991 439.362 800.312 438.871 802.53 438.126H802.534C802.539 438.126 802.543 438.122 802.547 438.117C802.754 438.048 802.961 437.979 803.167 437.906C803.112 437.898 803.056 437.889 803 437.876C806.445 435.882 806.548 429.004 806.548 429.004Z" fill="#5D74E4"/>
    <path d="M799.856 436.52C800.713 434.577 801.238 432.984 801.776 430.951C802.31 428.875 802.677 426.726 802.543 424.59C802.526 426.73 802.018 428.815 801.35 430.826C800.67 432.829 798.908 436.507 798.908 436.507C798.185 436.494 795.794 435.615 794.782 435.18C794.731 435.159 794.683 435.137 794.632 435.116C795.334 433.07 795.954 431.016 796.479 428.927C797 426.817 797.461 424.668 797.547 422.493C797.315 424.655 796.712 426.748 796.053 428.806C795.394 430.822 794.64 432.812 793.822 434.758C793.142 434.448 792.47 434.129 791.85 433.733C790.14 432.639 789.378 431.743 788.839 428.518C788.658 427.437 788.624 426.326 788.602 425.215C788.555 424.103 788.581 422.992 788.607 421.873C788.189 424.073 788.012 426.321 788.163 428.587C788.245 429.719 788.417 430.865 788.904 431.967C789.046 432.234 789.158 432.519 789.365 432.76L789.653 433.13L789.98 433.44C790.196 433.656 790.424 433.837 790.665 434.004C790.898 434.185 791.139 434.349 791.389 434.491C793.374 435.671 795.519 436.412 797.689 436.989C799.86 437.562 801.975 437.446 803.921 434.788C802.659 436.291 800.316 436.653 799.856 436.52Z" fill="#EAB2B2"/>
    <path opacity="0.1" d="M800.545 447.846C797.776 450.034 792.069 449.719 786.893 448.901C782.956 448.281 779.795 445.938 777.551 443.617C777.831 444.289 778.133 444.961 778.49 445.611C779.42 447.308 783.073 454.883 788.241 455.228C796.32 455.766 798.917 448.94 800.502 448.169C800.515 448.061 800.532 447.954 800.545 447.846ZM787.651 423.544C787.651 423.544 788.469 425.804 786.471 426.489C784.472 427.17 781.384 424.392 780.583 430.034C779.782 435.671 777.181 442.161 776.574 437.553C775.971 432.945 775.204 424.736 778.365 423.522C781.531 422.299 787.651 423.544 787.651 423.544Z" fill="#5D74E4"/>
    <path d="M776.63 440.663C776.63 440.663 770.721 429.504 770.575 425.697C770.428 421.89 775.058 417.217 777.905 416.868C780.536 416.55 786.26 419.909 787.371 421.627C788.482 423.345 789.442 425.77 784.136 425.404C778.826 425.038 778.525 426.451 778.525 426.451L776.63 440.663Z" fill="#EAB2B2"/>
    <path opacity="0.2" d="M783.969 421.907C783.969 421.907 786.85 424.03 787.504 423.793C788.159 423.556 786.992 421.192 785.894 420.757C784.795 420.322 783.969 421.907 783.969 421.907Z" fill="white"/>
    <path d="M771.393 467.084C771.389 471.498 718.679 663.489 715.738 677.529C688.726 806.436 766.578 809.968 766.578 809.968C767.724 809.585 768.861 809.184 769.899 808.663C853.693 766.828 803.994 465.577 803.994 465.577C803.994 465.577 771.483 462.523 771.393 467.084Z" fill="#5D74E4"/>
    <g opacity="0.1">
        <path opacity="0.1" d="M784.343 768.029C777.16 766.66 771.005 762.672 768.309 755.669C765.54 748.482 766.087 740.316 767.009 732.822C768.094 724.002 770.036 715.312 771.371 706.53C772.483 699.196 773.714 690.944 771.212 683.757C767.035 671.758 759.192 661.483 752.284 650.974C745.036 639.941 738.809 628.481 736.828 615.263C736.164 610.836 735.859 606.383 735.721 601.921C725.553 639.704 716.883 672.073 715.738 677.529C688.726 806.436 766.578 809.968 766.578 809.968C767.724 809.584 768.861 809.184 769.899 808.663C784.145 801.548 794.528 786.923 801.957 767.569C796.212 768.964 790.161 769.141 784.343 768.029Z" fill="#000141"/>
    </g>
    <path d="M411.989 946.455H722.672C698.068 796.074 733.869 486.774 598.291 458.488C526.494 443.509 393.492 541.964 424.53 673.106C433.044 764.494 446.412 854.723 411.989 946.455Z" fill="#C7DBFF"/>
    <path d="M664.592 712.943C664.592 716.543 664.773 720.324 664.954 723.921C664.773 724.101 664.954 724.101 664.954 724.101C665.255 735.962 665.759 748.344 666.396 760.471C666.56 765.092 666.616 769.524 667.116 773.977C667.417 782.87 667.921 792.775 668.373 801.703C671.444 871.092 680.372 903.887 690.35 946.455H752.642C733.339 451.455 643.119 480.93 632.981 474.16C631.215 523.393 661.771 642.968 664.592 712.585C664.415 712.762 664.415 712.762 664.592 712.943Z" fill="#C7DBFF"/>
    <path d="M541.047 943.513C546.262 920.86 574.858 901.85 576.206 856.893C576.387 856.712 576.387 856.531 576.206 856.351C576.482 851.863 576.361 846.639 576.387 842.126C576.387 841.949 576.387 841.949 576.206 841.772C575.788 762.848 564.884 682.856 550.999 605.556C550.823 605.375 550.823 605.375 550.823 605.375C543.355 574.204 538.075 469.461 544.492 464.181C531.318 475.012 506.873 512.735 495.951 524.789C501.83 538.553 520.573 565.117 526.697 579.445L477.002 678.291C547.554 781.677 541.047 943.513 541.047 943.513ZM646.767 584.014C652.662 648.214 615.569 815.661 653.769 942.449C653.769 942.449 660.358 781.677 687.822 681.315L648.627 596.516C683.162 579.173 672.727 538.562 676.892 524.797C664.467 512.743 637.481 472.398 621.547 467.222C635.927 471.89 640.005 510.366 646.767 584.014Z" fill="#5D74E4"/>
    <path d="M541.047 471.597C538.786 481.623 549.768 525.538 575.642 545.754C586.155 554.488 597.959 559.501 609.441 557.558C647.766 551.413 629.493 488.178 622.865 469.741C622.701 469.095 622.378 468.445 622.219 467.962C616.073 452.278 618.338 398.586 618.338 398.586L579.04 390.339C579.04 390.339 581.465 399.719 571.439 426.726C561.245 453.733 544.44 457.532 541.047 471.597Z" fill="#FECECC"/>
    <path opacity="0.5" d="M575.642 545.754C586.155 554.488 597.959 559.501 609.441 557.558C647.766 551.413 629.493 488.178 622.865 469.741C622.701 469.095 622.378 468.445 622.219 467.962C616.073 452.278 618.338 398.586 618.338 398.586L581.465 390.985C582.761 391.954 583.566 393.573 583.73 395.675C584.54 417.183 603.136 432.221 610.896 451.304C616.878 466.025 620.759 486.236 611.706 500.629C609.118 504.836 591.004 527.804 575.642 545.754Z" fill="#EAB2B2"/>
    <path d="M645.858 418.311C631.844 437.906 580.134 420.955 574.29 395.697C572.472 387.746 569.35 374.077 569.35 374.077C569.35 374.077 556.917 368.633 558.687 355.903C560.168 346.049 568.316 352.277 568.316 352.277L568.273 341.334L645.044 331.863C645.044 331.863 646.246 337.427 647.813 345.998C648.571 350.412 649.282 355.748 650.074 361.372C652.563 381.842 653.657 407.527 645.858 418.311Z" fill="#FECECC"/>
    <path opacity="0.5" d="M650.074 361.364C638.838 363.616 624.88 365.481 617.654 364.904C604.927 363.806 568.454 350.162 568.454 350.162L643.011 327.569C647.675 333.366 649.282 355.739 650.074 361.364Z" fill="#EAB2B2"/>
    <path opacity="0.1" d="M598.295 388.548C598.192 390.822 600.892 392.794 604.329 392.953C607.765 393.113 610.638 391.403 610.746 389.129C610.853 386.859 608.153 384.887 604.712 384.723C601.275 384.564 598.403 386.278 598.295 388.548ZM636.482 384.146C636.375 386.416 639.075 388.388 642.516 388.548C645.953 388.707 648.825 386.997 648.933 384.723C649.041 382.454 646.336 380.481 642.899 380.322C639.458 380.158 636.59 381.872 636.482 384.146Z" fill="#201135"/>
    <path d="M632.335 363.405C632.662 363.366 632.955 363.16 633.093 362.837C633.214 362.557 636.133 356.097 645.543 358.974C646.052 359.124 646.577 358.844 646.728 358.345C646.879 357.845 646.599 357.316 646.099 357.161C635.005 353.763 631.383 362.014 631.349 362.096C631.146 362.578 631.37 363.134 631.853 363.341C632.008 363.405 632.176 363.427 632.335 363.405ZM614.088 365.783C614.204 365.77 614.32 365.731 614.428 365.675C614.889 365.425 615.061 364.848 614.807 364.391C614.764 364.31 610.345 356.51 598.282 360.658C597.787 360.826 597.524 361.368 597.696 361.863C597.869 362.359 598.398 362.626 598.902 362.453C609.471 358.814 613.106 365.236 613.144 365.3C613.33 365.645 613.713 365.83 614.088 365.783ZM627.662 388.057C627.99 388.018 628.304 387.932 628.605 387.802C630.53 386.98 631.103 384.628 631.129 384.529C631.198 384.237 631.125 383.931 630.931 383.703C626.926 378.926 626.977 371.812 626.977 371.743C626.986 371.218 626.564 370.787 626.043 370.783C625.505 370.77 625.087 371.196 625.083 371.717C625.078 372.031 625.027 379.228 629.148 384.512C628.937 385.038 628.515 385.787 627.856 386.063C627.244 386.317 626.435 386.166 625.466 385.589C625.014 385.322 624.432 385.473 624.17 385.925C623.903 386.377 624.053 386.958 624.505 387.225C625.638 387.893 626.698 388.173 627.662 388.057Z" fill="#000141"/>
    <path d="M641.233 398.862C641.233 398.862 631.082 405.029 618.369 400.886C616.245 406.214 632.081 417.506 641.233 398.862Z" fill="#FCFAF7"/>
    <path d="M636.108 370.653C636.461 373.586 638.377 375.77 640.384 375.524C642.391 375.283 643.73 372.703 643.377 369.771C643.024 366.838 641.108 364.654 639.101 364.9C637.094 365.145 635.754 367.721 636.108 370.653ZM603.403 374.607C603.756 377.54 605.672 379.723 607.679 379.478C609.686 379.237 611.026 376.661 610.672 373.724C610.319 370.791 608.403 368.608 606.396 368.853C604.385 369.099 603.045 371.674 603.403 374.607Z" fill="#000141"/>
    <path opacity="0.1" d="M628.915 413.884C629.91 413.763 630.539 413.539 630.604 413.513C630.849 413.423 630.974 413.152 630.884 412.906C630.793 412.661 630.518 412.536 630.276 412.622C630.238 412.639 626.215 414.056 622.076 411.257C621.852 411.119 621.564 411.171 621.418 411.386C621.271 411.601 621.331 411.898 621.547 412.045C624.424 413.991 627.21 414.09 628.915 413.884Z" fill="#201135"/>
    <path opacity="0.5" d="M566.503 354.801C566.503 354.801 563.721 351.807 562.386 354.086C561.06 356.368 561.938 365.037 566.228 367.944C566.228 367.944 561.822 360.167 563.079 357.501C564.333 354.831 567.718 357.044 566.503 354.801Z" fill="#EAB2B2"/>
    <path d="M646.581 347.475C645.234 341.075 642.934 337.272 635.565 335.666C634.157 335.356 642.327 341.114 642.99 349.512C639.006 352.217 634.295 354.516 629.351 355.976C611.099 361.424 566.68 349.598 566.68 349.598C560.986 287.952 648.33 304.115 657.486 326.006C659.502 330.795 653.567 340.946 646.581 347.475Z" fill="#000141"/>
    <path d="M623.412 912.514C660.858 810.437 677.818 702.831 672.564 586.116C672.344 581.357 668.899 577.95 664.932 578.467C611.06 585.599 553.329 591.245 491.417 595.311C488.454 595.504 485.934 598.933 485.684 602.968C479.771 702.792 456.92 796.927 417.553 887.574C415.904 891.372 417.114 894.9 420.318 895.425C487.618 906.519 551.641 914.495 612.391 919.637C616.857 920.029 621.844 916.812 623.412 912.514Z" fill="white"/>
    <g opacity="0.2">
        <path opacity="0.1" d="M617.076 883.332C646.711 794.279 660.893 700.772 658.502 600.487C608.786 605.974 555.922 610.19 499.707 613.067C493.802 706.367 473.027 794.658 437.786 879.762C476.981 885.61 515.013 890.429 551.886 894.279C574.143 890.744 595.866 887.092 617.076 883.332Z" fill="#5D74E4"/>
    </g>
    <path d="M615.569 879.21C644.764 790.26 658.571 696.797 655.862 596.478C606.439 602.063 553.885 606.396 497.993 609.423C492.385 702.706 471.968 790.932 437.144 875.907C476.167 881.665 514.031 886.42 550.741 890.21C572.873 886.657 594.479 882.987 615.569 879.21Z" fill="#A0C5FF"/>
    <path opacity="0.1" d="M655.862 596.478C645.126 597.692 634.17 598.82 623.132 599.914C634.381 624.553 641.082 651.693 632.408 676.353C625.543 695.863 611.224 707.34 592.081 713.529C586.637 715.29 579.079 717.258 575.366 722.077C575.276 722.194 575.229 722.224 575.155 722.314C575.155 722.318 575.16 722.318 575.16 722.323C575.254 723.068 576.697 725.062 576.934 725.501C581.581 734.058 585.052 743.029 586.163 752.762C588.123 769.933 580.405 784.791 566.482 794.662C547.713 807.969 523.109 818.508 500.163 820.976C486.309 822.466 472.312 820.541 458.725 816.91C452.26 836.751 445.128 856.428 437.144 875.907C476.167 881.669 514.031 886.42 550.745 890.21C572.877 886.657 594.484 882.987 615.573 879.21C644.764 790.26 658.575 696.797 655.862 596.478Z" fill="#5D74E4"/>
    <path d="M615.569 879.21C611.822 874.671 608.05 870.08 604.243 865.425C586.947 873.633 569.122 881.898 550.741 890.21C572.873 886.657 594.479 882.987 615.569 879.21Z" fill="#A0C5FF"/>
    <path opacity="0.25" d="M416.817 832.431V866.54C416.817 866.54 516.529 896.7 577.524 849.486C638.519 802.272 636.706 781.057 636.706 781.057C636.706 781.057 666.698 793.202 665.225 779.507C663.752 765.816 632.395 757.267 619.721 760.097C607.046 762.93 416.817 832.431 416.817 832.431Z" fill="#000141"/>
    <path d="M636.116 753.025C629.329 754.605 599.746 753.951 596.749 757.073C596.749 757.073 595.328 773.378 599.445 776.147C603.933 777.207 637.869 773.378 637.869 773.378C637.869 773.378 641.891 777.026 650.668 778.955C653.007 779.472 655.376 779.855 657.632 780.023V780.032C657.641 780.032 657.641 780.032 657.654 780.041C657.766 780.053 658.343 780.161 659.187 780.295H659.196C662.245 780.777 668.795 781.664 669.846 780.458C671.172 778.951 671.737 776.789 670.458 775.501C670.514 775.437 670.561 775.364 670.617 775.299C671.414 775.204 673.416 774.799 674.217 773.219C675.005 771.681 674.049 770.437 673.58 769.95C673.606 769.868 673.64 769.786 673.666 769.709C674.329 769.666 675.781 769.463 676.155 768.52C676.629 767.301 677.025 765.183 675.186 764.162C675.195 764.136 675.195 764.102 675.204 764.076C675.591 763.878 677.09 762.991 676.874 760.837C676.629 758.369 675.475 758.025 675.475 758.025C675.475 758.025 676.969 755.984 676.646 754.261C676.328 752.53 674.777 750.411 670.849 749.89L670.815 749.894C670.436 749.748 670.031 749.614 669.596 749.549C667.822 749.261 666.073 749.102 664.411 749.037C664.071 749.028 663.735 749.024 663.395 749.011C656.922 748.89 651.969 750.096 651.969 750.096C651.969 750.096 661.181 740.871 657.645 735.777C654.122 730.686 642.912 751.44 636.116 753.025Z" fill="#FECECC"/>
    <path opacity="0.2" d="M664.415 749.041C667.103 759.804 660.475 774.442 657.637 780.019C657.628 780.019 657.628 780.028 657.628 780.028H657.637C657.645 780.028 657.645 780.028 657.658 780.036C658.11 780.071 658.627 780.161 659.191 780.29H659.2C662.249 780.773 668.799 781.66 669.85 780.454C671.177 778.947 671.741 776.785 670.462 775.497C670.518 775.432 670.565 775.359 670.621 775.295C671.418 775.2 673.421 774.795 674.222 773.215C675.01 771.677 674.054 770.432 673.584 769.946C673.61 769.864 673.644 769.782 673.67 769.705C674.334 769.662 675.785 769.459 676.16 768.516C676.633 767.297 677.029 765.178 675.191 764.158C675.199 764.132 675.199 764.097 675.208 764.071C675.595 763.873 677.094 762.986 676.879 760.833C676.633 758.365 675.479 758.021 675.479 758.021C675.479 758.021 676.974 755.979 676.651 754.257C676.332 752.525 674.781 750.406 670.854 749.885L670.819 749.89C670.44 749.743 670.036 749.61 669.601 749.545C667.822 749.265 666.073 749.106 664.415 749.041Z" fill="white"/>
    <path d="M670.178 774.847C668.855 774.063 667.49 773.426 666.073 772.896C664.656 772.37 663.188 771.983 661.693 771.828C663.171 772.095 664.592 772.586 665.944 773.206C667.292 773.826 668.601 774.567 669.803 775.407L669.812 775.411C669.962 775.519 670.173 775.484 670.281 775.329C670.389 775.178 670.35 774.967 670.199 774.864C670.191 774.855 670.182 774.851 670.178 774.847ZM675.044 757.517C673.563 756.711 672.038 756.065 670.466 755.544C668.89 755.023 667.262 754.661 665.621 754.554C667.253 754.786 668.825 755.264 670.337 755.889C671.84 756.513 673.309 757.271 674.652 758.141L674.665 758.15C674.833 758.262 675.066 758.214 675.173 758.042C675.285 757.87 675.238 757.642 675.066 757.534C675.061 757.525 675.053 757.521 675.044 757.517ZM674.713 763.477C673.235 762.599 671.706 761.888 670.117 761.294C668.532 760.708 666.892 760.273 665.221 760.101C666.874 760.398 668.464 760.949 669.975 761.642C671.483 762.336 672.951 763.163 674.29 764.102L674.303 764.11C674.471 764.231 674.708 764.188 674.825 764.02C674.945 763.852 674.902 763.615 674.734 763.499C674.73 763.49 674.721 763.481 674.713 763.477ZM673.227 769.188C671.75 768.313 670.225 767.599 668.64 767.009C667.06 766.423 665.419 765.992 663.752 765.82C665.402 766.117 666.986 766.664 668.498 767.357C670.005 768.051 671.465 768.873 672.805 769.812L672.818 769.821C672.99 769.941 673.222 769.898 673.339 769.73C673.459 769.562 673.416 769.326 673.248 769.209C673.24 769.196 673.231 769.192 673.227 769.188Z" fill="#FF97A6"/>
    <path opacity="0.2" d="M655.389 735.622C655.389 735.622 652.774 739.734 651.9 739.795C651.026 739.855 650.746 738.826 650.746 738.826C650.746 738.826 653.847 735.32 655.389 735.622Z" fill="white"/>
    <path d="M490.249 495.163C490.249 495.163 327.927 622.176 364.831 799.515C373.22 839.826 467.618 783.934 459.767 764.507C410.451 642.482 490.249 495.163 490.249 495.163Z" fill="#5D74E4"/>
    <path opacity="0.25" d="M455.602 753.167C440.275 707.646 441.61 659.42 449.173 617.128C449.173 617.102 449.173 617.081 449.173 617.055C449.246 611.038 449.784 605.039 450.361 599.053C445.891 603.144 442.342 608.174 439.177 613.312C435.49 619.303 432.321 625.591 429.03 631.801C427.402 634.876 425.701 637.886 424.517 641.172C423.302 644.54 422.562 648.05 422.234 651.612C421.614 658.407 422.514 665.208 423.647 671.905C425.796 684.639 429.65 698.571 423.923 710.897C421.455 716.207 417.82 720.824 414.327 725.479C410.288 730.863 406.601 736.474 403.647 742.534C397.734 754.67 394.53 768.37 397.058 781.759C403.027 775.717 409.642 770.346 416.928 765.958C428.699 758.882 441.972 754.601 455.602 753.167Z" fill="#000141"/>
    <path d="M627.955 747.633C627.955 747.633 636.469 772.491 628.024 781.992C619.583 791.492 457.415 847.324 411.989 837.841C331.092 820.95 358.082 755.148 430.912 742.478C503.742 729.812 627.955 747.633 627.955 747.633Z" fill="#5D74E4"/>
    <path d="M368.612 946.597H778.314C779.434 946.597 780.342 945.688 780.342 944.568C780.342 943.449 779.434 942.54 778.314 942.54H368.612C367.492 942.54 366.583 943.449 366.583 944.568C366.583 945.688 367.492 946.597 368.612 946.597Z" fill="#A0C5FF"/>
    <path d="M1004.54 311.273C1004.54 319.938 999.125 325.351 990.697 325.351C982.265 325.351 976.851 319.938 976.851 311.273C976.851 302.565 982.265 297.194 990.697 297.194C999.125 297.194 1004.54 302.565 1004.54 311.273ZM997.321 311.273C997.321 305.506 994.771 302.371 990.693 302.371C986.614 302.371 984.065 305.506 984.065 311.273C984.065 316.997 986.614 320.175 990.693 320.175C994.771 320.175 997.321 316.997 997.321 311.273ZM1027.61 324.8L1017.76 306.915C1018 309.662 1018 312.052 1018 313.62V324.796H1010.94V297.737H1019.72L1030 316.406C1029.8 313.659 1029.76 310.877 1029.76 309.305V297.737H1036.82V324.796H1027.61V324.8ZM1064.99 324.8H1044.25V297.741H1051.3V318.84H1064.99V324.8ZM1071.04 324.8V297.741H1078.1V324.8H1071.04ZM1102.18 324.8L1092.33 306.915C1092.57 309.662 1092.57 312.052 1092.57 313.62V324.796H1085.51V297.737H1094.3L1104.57 316.406C1104.38 313.659 1104.34 310.877 1104.34 309.305V297.737H1111.4V324.796H1102.18V324.8ZM1139.56 324.8H1118.82V297.741H1139.17V303.232H1125.87V308.487H1138.39V313.978H1125.87V319.309H1139.56V324.8ZM1180.24 310.92C1180.24 319.391 1175.07 323.939 1168.79 324.645C1167.42 324.8 1166.79 324.8 1165.34 324.8H1155.1V297.741H1165.34C1166.79 297.741 1167.42 297.741 1168.79 297.896C1175.07 298.603 1180.24 302.449 1180.24 310.92ZM1172.87 311.036C1172.87 306.213 1170.44 303.624 1166.91 303.31C1166.01 303.232 1165.38 303.232 1164.36 303.232H1162.16V319.313H1164.36C1165.38 319.313 1166.01 319.313 1166.91 319.236C1170.44 318.922 1172.87 315.86 1172.87 311.036ZM1213.31 311.273C1213.31 319.938 1207.9 325.351 1199.46 325.351C1191.03 325.351 1185.62 319.938 1185.62 311.273C1185.62 302.565 1191.03 297.194 1199.46 297.194C1207.9 297.194 1213.31 302.565 1213.31 311.273ZM1206.1 311.273C1206.1 305.506 1203.55 302.371 1199.47 302.371C1195.39 302.371 1192.84 305.506 1192.84 311.273C1192.84 316.997 1195.39 320.175 1199.47 320.175C1203.55 320.175 1206.1 316.997 1206.1 311.273ZM1244.3 306.643L1244.34 307.035H1237.28L1237.2 306.643C1236.61 303.741 1234.85 302.371 1231.99 302.371C1228.61 302.371 1226.06 305.196 1226.06 311.036C1226.06 317.862 1228.89 320.175 1232.03 320.175C1234.77 320.175 1236.53 318.487 1237.12 315.506L1237.2 315.115H1244.26L1244.22 315.506C1243.55 322.018 1238.58 325.351 1231.79 325.351C1224.53 325.351 1218.69 320.644 1218.69 311.467C1218.69 302.052 1224.73 297.19 1232.06 297.19C1239.79 297.194 1243.75 301.312 1244.3 306.643ZM1263.92 303.232V324.804H1256.86V303.232H1248.07V297.741H1272.7V303.232H1263.92ZM1303.42 311.273C1303.42 319.938 1298 325.351 1289.57 325.351C1281.14 325.351 1275.73 319.938 1275.73 311.273C1275.73 302.565 1281.14 297.194 1289.57 297.194C1298 297.194 1303.42 302.565 1303.42 311.273ZM1296.2 311.273C1296.2 305.506 1293.65 302.371 1289.57 302.371C1285.49 302.371 1282.94 305.506 1282.94 311.273C1282.94 316.997 1285.49 320.175 1289.57 320.175C1293.65 320.175 1296.2 316.997 1296.2 311.273ZM1332.96 324.8H1325.27C1324.64 322.879 1324.25 321.312 1324.02 319.387C1323.66 316.406 1322.49 314.68 1320.68 314.563C1319.9 314.524 1319.23 314.524 1318.45 314.524H1316.88V324.8H1309.82V297.741H1320.57C1322.25 297.741 1323.35 297.78 1324.8 297.935C1328.72 298.405 1332.13 300.325 1332.13 305.114C1332.13 308.525 1330.29 310.799 1326.68 311.859C1329.51 312.879 1330.52 314.959 1330.92 318.211C1331.27 321.273 1331.9 323.194 1332.96 324.8ZM1319.42 309.43C1320.17 309.43 1320.8 309.43 1321.31 309.391C1323.11 309.236 1324.76 308.607 1324.76 306.333C1324.76 304.059 1323.31 303.431 1321.5 303.275C1320.99 303.237 1320.36 303.237 1319.62 303.237H1316.88V309.434H1319.42V309.43Z" fill="#5D74E4"/>
    <path d="M739.868 385.292V356.054H739.347C725.376 356.054 714.007 344.688 714.007 330.718V315.885C714.007 301.915 725.372 290.549 739.347 290.549H844.611C858.581 290.549 869.947 301.915 869.947 315.885V330.718C869.947 344.688 858.577 356.054 844.611 356.054H772L739.868 385.292ZM739.347 293.551C727.034 293.551 717.017 303.568 717.017 315.881V330.713C717.017 343.026 727.034 353.043 739.347 353.043H742.874V378.487L770.833 353.043H844.606C856.919 353.043 866.936 343.026 866.936 330.713V315.881C866.936 303.568 856.919 293.551 844.606 293.551H739.347Z" fill="#A0C5FF"/>
    <path d="M783.895 324.327C784.184 328.793 788.034 332.178 792.5 331.889C796.966 331.605 800.351 327.75 800.062 323.289C799.774 318.823 795.924 315.438 791.462 315.726C786.996 316.01 783.607 319.86 783.895 324.327ZM815.183 323.81C815.183 328.284 818.809 331.911 823.284 331.911C827.759 331.911 831.385 328.284 831.385 323.81C831.385 319.335 827.759 315.709 823.284 315.709C818.809 315.709 815.183 319.335 815.183 323.81ZM752.59 324.327C752.874 328.793 756.729 332.178 761.19 331.889C765.656 331.605 769.042 327.75 768.757 323.289C768.469 318.823 764.619 315.438 760.153 315.726C755.691 316.01 752.301 319.86 752.59 324.327Z" fill="#A0C5FF"/>
    <path opacity="0.2" d="M230.527 453.561V471.571C230.527 471.571 245.127 475.835 260.441 464.185V444.349L230.527 453.561Z" fill="#000141"/>
    <path d="M217.039 462.82C198.636 462.82 180.234 455.818 166.224 441.804C138.21 413.785 138.21 368.19 166.224 340.175C194.239 312.152 239.838 312.152 267.853 340.175C271.436 343.758 271.436 349.559 267.853 353.142C264.27 356.726 258.465 356.726 254.886 353.142C244.778 343.035 231.333 337.466 217.039 337.466C202.745 337.466 189.3 343.035 179.192 353.142C158.326 374.013 158.326 407.966 179.192 428.836C189.3 438.944 202.745 444.513 217.039 444.513C231.333 444.513 244.778 438.944 254.886 428.836C271.268 412.45 275.269 387.553 264.843 366.881C262.56 362.359 264.378 356.842 268.895 354.559C273.422 352.251 278.93 354.09 281.217 358.612C295.226 386.373 289.856 419.805 267.857 441.804C253.844 455.813 235.437 462.82 217.039 462.82Z" fill="#A0C5FF"/>
    <path d="M258.585 349.439C281.531 372.385 281.531 409.59 258.585 432.536C235.639 455.482 198.434 455.482 175.488 432.536C152.542 409.59 152.542 372.385 175.488 349.439C198.434 326.488 235.635 326.488 258.585 349.439Z" fill="white"/>
    <path opacity="0.54" d="M236.268 384.383V413.561C236.268 418.431 232.336 422.368 227.487 422.368H207.271C202.426 422.368 198.494 418.431 198.494 413.561V384.383C198.494 384.069 198.52 383.784 198.546 383.496C198.701 381.829 199.356 380.24 200.398 378.939L210.661 365.912H224.106L234.369 378.939C235.411 380.24 236.061 381.833 236.221 383.496C236.242 383.784 236.268 384.073 236.268 384.383Z" fill="#A0C5FF"/>
    <path d="M236.268 384.383V409.861H198.494L198.546 383.496H236.216C236.242 383.784 236.268 384.073 236.268 384.383Z" fill="#5D74E4"/>
    <path d="M226.251 356.252V363.039C226.251 364.646 224.959 365.942 223.348 365.942H211.358C209.752 365.942 208.456 364.646 208.456 363.039V356.131C208.529 354.572 209.799 353.349 211.358 353.349H223.348C224.959 353.349 226.251 354.645 226.251 356.252Z" fill="#A0C5FF"/>
    <path d="M220.376 356.131H208.46V356.73H220.376V356.131Z" fill="white"/>
    <path d="M218.15 358H208.46V358.599H218.15V358Z" fill="white"/>
    <path d="M220.376 360.016H208.46V360.614H220.376V360.016Z" fill="white"/>
    <path d="M218.15 361.885H208.46V362.509H218.15V361.885Z" fill="white"/>
    <path d="M229.537 383.496V409.861H227.228V384.383C227.228 384.069 227.211 383.784 227.194 383.496H229.537Z" fill="white"/>
    <path opacity="0.2" d="M1451.05 669.592V689.523C1451.05 689.523 1441.77 695.26 1421.43 689.523V664.665L1451.05 669.592Z" fill="#000141"/>
    <path d="M1435.21 679.713C1416.26 679.713 1397.31 672.499 1382.88 658.072C1354.04 629.221 1354.04 582.274 1382.88 553.428C1411.73 524.574 1458.68 524.574 1487.53 553.428C1491.21 557.115 1491.21 563.092 1487.53 566.783C1483.84 570.474 1477.86 570.474 1474.17 566.783C1463.76 556.374 1449.92 550.646 1435.21 550.646C1420.49 550.646 1406.64 556.378 1396.24 566.783C1374.76 588.269 1374.76 623.231 1396.24 644.721C1406.65 655.13 1420.49 660.858 1435.21 660.858C1449.92 660.858 1463.77 655.126 1474.17 644.721C1491.04 627.852 1495.16 602.214 1484.42 580.926C1482.07 576.271 1483.94 570.59 1488.59 568.243C1493.26 565.866 1498.93 567.761 1501.28 572.416C1515.71 601 1510.18 635.423 1487.53 658.076C1473.1 672.495 1454.15 679.713 1435.21 679.713Z" fill="#A0C5FF"/>
    <path d="M1477.98 562.968C1501.61 586.594 1501.61 624.902 1477.98 648.528C1454.36 672.154 1416.05 672.154 1392.42 648.528C1368.8 624.902 1368.8 586.594 1392.42 562.968C1416.05 539.341 1454.36 539.341 1477.98 562.968Z" fill="url(#paint0_linear_9:669)"/>
    <path d="M1457.08 580.539L1446.95 614.337C1445.33 619.764 1439.61 622.886 1434.18 621.258C1428.75 619.63 1425.69 613.881 1427.32 608.45L1437.44 574.656C1439.07 569.229 1444.79 566.107 1450.21 567.735C1455.64 569.359 1458.71 575.112 1457.08 580.539Z" fill="#5D74E4"/>
    <path d="M1457.08 580.539L1452.1 597.154L1432.46 591.271L1437.44 574.656C1439.07 569.229 1444.79 566.107 1450.21 567.735C1455.64 569.359 1458.71 575.112 1457.08 580.539Z" fill="#A0C5FF"/>
    <path opacity="0.44" d="M1432.46 591.271L1451.38 599.604L1452.1 597.154L1432.46 591.271Z" fill="#BAF1EB"/>
    <path opacity="0.49" d="M1451.06 569.927C1452.78 570.961 1454.28 572.477 1455.2 574.41C1456.3 576.361 1455.64 578.902 1455.14 580.676C1454.19 584.574 1453.15 588.441 1452.04 592.287C1449.82 599.988 1447.43 607.632 1444.68 615.169L1444.65 615.276L1444.63 615.302C1443.7 616.788 1442.47 617.977 1440.95 618.773C1439.44 619.574 1437.61 619.682 1436.13 619.036C1437.72 619.32 1439.31 618.95 1440.52 618.058C1441.72 617.158 1442.69 615.892 1443.36 614.626L1443.3 614.755C1445.16 606.947 1447.36 599.247 1449.75 591.602C1450.94 587.778 1452.19 583.971 1453.54 580.198C1454.3 578.239 1454.84 576.632 1454.25 574.763C1453.73 572.955 1452.5 571.314 1451.06 569.927Z" fill="white"/>
    <path d="M1433.35 597.184V632.464C1433.35 638.132 1428.77 642.761 1423.1 642.761C1417.44 642.761 1412.85 638.132 1412.85 632.464V597.184C1412.85 591.516 1417.43 586.887 1423.1 586.887C1428.77 586.887 1433.35 591.516 1433.35 597.184Z" fill="#5D74E4"/>
    <path d="M1433.35 597.184V614.527H1412.85V597.184C1412.85 591.516 1417.44 586.887 1423.11 586.887C1428.77 586.887 1433.35 591.516 1433.35 597.184Z" fill="#A0C5FF"/>
    <path opacity="0.44" d="M1412.85 614.527L1433.37 617.081L1433.35 614.527H1412.85Z" fill="#BAF1EB"/>
    <path opacity="0.49" d="M1424.54 588.747C1426.49 589.242 1428.36 590.259 1429.8 591.852C1431.41 593.403 1431.51 596.025 1431.53 597.873C1431.74 601.878 1431.85 605.883 1431.89 609.889C1431.98 617.899 1431.89 625.905 1431.42 633.916L1431.42 634.032L1431.41 634.058C1430.94 635.75 1430.11 637.24 1428.88 638.438C1427.67 639.639 1425.94 640.268 1424.34 640.074C1425.95 639.889 1427.36 639.079 1428.27 637.873C1429.16 636.668 1429.72 635.177 1429.99 633.773L1429.98 633.916C1429.52 625.905 1429.42 617.895 1429.51 609.889C1429.55 605.883 1429.66 601.878 1429.87 597.873C1430.03 595.78 1430.09 594.087 1428.99 592.468C1427.97 590.879 1426.32 589.66 1424.54 588.747Z" fill="white"/>
    <path d="M1450.49 636.797C1448.75 639.54 1445.53 640.724 1442.57 640.018C1442.22 639.953 1441.89 639.863 1441.54 639.725C1441.14 639.579 1440.7 639.346 1440.31 639.105C1439.87 638.825 1439.48 638.506 1439.12 638.162C1438.85 637.912 1438.62 637.654 1438.42 637.369C1436.57 635.005 1436.29 631.65 1438 628.933C1439.7 626.241 1442.87 625.022 1445.79 625.664C1446.14 625.729 1446.47 625.819 1446.81 625.957C1447.28 626.138 1447.73 626.344 1448.17 626.624C1448.56 626.87 1448.96 627.158 1449.27 627.468C1449.54 627.718 1449.76 627.977 1449.97 628.261C1451.89 630.634 1452.21 634.053 1450.49 636.797Z" fill="#5D74E4"/>
    <path d="M1449.97 628.261C1449.97 628.261 1441.89 639.867 1441.54 639.729C1441.14 639.583 1440.7 639.35 1440.31 639.109C1439.87 638.829 1439.48 638.511 1439.12 638.166C1438.85 637.916 1445.79 625.668 1445.79 625.668C1446.14 625.733 1446.47 625.823 1446.81 625.961C1447.28 626.142 1447.73 626.349 1448.17 626.629C1448.56 626.874 1448.96 627.163 1449.27 627.473C1449.54 627.718 1449.77 627.977 1449.97 628.261Z" fill="#A0C5FF"/>
    <path opacity="0.49" d="M1449.27 627.473L1441.54 639.729C1441.14 639.583 1440.7 639.351 1440.31 639.109C1439.87 638.829 1439.48 638.511 1439.12 638.166L1446.81 625.961C1447.28 626.142 1447.73 626.349 1448.17 626.629C1448.56 626.87 1448.97 627.158 1449.27 627.473Z" fill="white"/>
    <path d="M1468.28 621.064C1468.93 625.104 1466.86 628.907 1463.46 630.703C1463.07 630.935 1462.69 631.12 1462.25 631.271C1461.74 631.478 1461.14 631.616 1460.56 631.706C1459.91 631.81 1459.28 631.827 1458.66 631.801C1458.19 631.788 1457.77 631.732 1457.33 631.637C1453.63 630.931 1450.56 627.985 1449.93 623.989C1449.3 620.031 1451.28 616.245 1454.59 614.419C1454.97 614.187 1455.36 614.001 1455.8 613.851C1456.39 613.631 1456.99 613.45 1457.64 613.347C1458.21 613.261 1458.83 613.205 1459.38 613.239C1459.84 613.252 1460.27 613.308 1460.7 613.407C1464.49 614.057 1467.64 617.025 1468.28 621.064Z" fill="#5D74E4"/>
    <path d="M1460.7 613.407C1460.7 613.407 1462.69 631.12 1462.25 631.271C1461.74 631.478 1461.14 631.616 1460.56 631.706C1459.91 631.81 1459.28 631.827 1458.66 631.801C1458.19 631.788 1454.59 614.419 1454.59 614.419C1454.97 614.187 1455.36 614.001 1455.8 613.851C1456.39 613.631 1456.99 613.45 1457.64 613.347C1458.21 613.261 1458.83 613.205 1459.38 613.239C1459.84 613.252 1460.27 613.308 1460.7 613.407Z" fill="#A0C5FF"/>
    <path opacity="0.49" d="M1459.38 613.239L1462.26 631.271C1461.74 631.478 1461.14 631.616 1460.57 631.706C1459.91 631.81 1459.29 631.827 1458.66 631.801L1455.8 613.851C1456.39 613.631 1456.99 613.45 1457.64 613.347C1458.21 613.261 1458.83 613.205 1459.38 613.239Z" fill="white"/>
    <path d="M1478.68 427.557C1480.03 427.557 1481.13 426.459 1481.13 425.103C1481.13 423.746 1480.03 422.648 1478.68 422.648C1477.32 422.648 1476.22 423.746 1476.22 425.103C1476.22 426.459 1477.32 427.557 1478.68 427.557ZM1478.68 446.377C1480.03 446.377 1481.13 445.279 1481.13 443.923C1481.13 442.566 1480.03 441.468 1478.68 441.468C1477.32 441.468 1476.22 442.566 1476.22 443.923C1476.22 445.279 1477.32 446.377 1478.68 446.377ZM1478.68 465.198C1480.03 465.198 1481.13 464.099 1481.13 462.743C1481.13 461.386 1480.03 460.288 1478.68 460.288C1477.32 460.288 1476.22 461.386 1476.22 462.743C1476.22 464.099 1477.32 465.198 1478.68 465.198ZM1478.68 484.018C1480.03 484.018 1481.13 482.919 1481.13 481.563C1481.13 480.206 1480.03 479.108 1478.68 479.108C1477.32 479.108 1476.22 480.206 1476.22 481.563C1476.22 482.919 1477.32 484.018 1478.68 484.018ZM1489.27 417.717C1490.63 417.717 1491.73 416.618 1491.73 415.262C1491.73 413.905 1490.63 412.807 1489.27 412.807C1487.91 412.807 1486.82 413.905 1486.82 415.262C1486.82 416.618 1487.92 417.717 1489.27 417.717ZM1489.27 436.541C1490.63 436.541 1491.73 435.443 1491.73 434.086C1491.73 432.73 1490.63 431.631 1489.27 431.631C1487.91 431.631 1486.82 432.73 1486.82 434.086C1486.82 435.439 1487.92 436.541 1489.27 436.541ZM1489.27 455.361C1490.63 455.361 1491.73 454.263 1491.73 452.906C1491.73 451.55 1490.63 450.452 1489.27 450.452C1487.91 450.452 1486.82 451.55 1486.82 452.906C1486.82 454.263 1487.92 455.361 1489.27 455.361ZM1489.27 474.181C1490.63 474.181 1491.73 473.083 1491.73 471.726C1491.73 470.37 1490.63 469.272 1489.27 469.272C1487.91 469.272 1486.82 470.37 1486.82 471.726C1486.82 473.083 1487.92 474.181 1489.27 474.181Z" fill="#A0C5FF"/>
    <path d="M157.099 886.949C158.804 886.949 160.182 885.567 160.182 883.866C160.182 882.16 158.8 880.782 157.099 880.782C155.397 880.782 154.015 882.165 154.015 883.866C154.015 885.571 155.393 886.949 157.099 886.949ZM157.099 910.597C158.804 910.597 160.182 909.215 160.182 907.514C160.182 905.813 158.8 904.43 157.099 904.43C155.397 904.43 154.015 905.813 154.015 907.514C154.015 909.219 155.393 910.597 157.099 910.597ZM157.099 934.245C158.804 934.245 160.182 932.863 160.182 931.162C160.182 929.456 158.8 928.078 157.099 928.078C155.397 928.078 154.015 929.46 154.015 931.162C154.015 932.863 155.393 934.245 157.099 934.245ZM157.099 957.893C158.804 957.893 160.182 956.511 160.182 954.81C160.182 953.104 158.8 951.726 157.099 951.726C155.397 951.726 154.015 953.108 154.015 954.81C154.015 956.511 155.393 957.893 157.099 957.893ZM170.41 874.589C172.116 874.589 173.494 873.207 173.494 871.506C173.494 869.805 172.112 868.422 170.41 868.422C168.709 868.422 167.327 869.805 167.327 871.506C167.327 873.207 168.705 874.589 170.41 874.589ZM170.41 898.237C172.116 898.237 173.494 896.855 173.494 895.154C173.494 893.452 172.112 892.07 170.41 892.07C168.709 892.07 167.327 893.452 167.327 895.154C167.327 896.855 168.705 898.237 170.41 898.237ZM170.41 921.885C172.116 921.885 173.494 920.503 173.494 918.802C173.494 917.096 172.112 915.718 170.41 915.718C168.709 915.718 167.327 917.1 167.327 918.802C167.323 920.503 168.705 921.885 170.41 921.885ZM170.41 945.533C172.116 945.533 173.494 944.151 173.494 942.449C173.494 940.748 172.112 939.366 170.41 939.366C168.709 939.366 167.327 940.748 167.327 942.449C167.323 944.151 168.705 945.533 170.41 945.533Z" fill="#A0C5FF"/>
</svg>