<svg width="161" height="160" viewBox="0 0 161 160" fill="none"
  xmlns="http://www.w3.org/2000/svg">
  <defs>
    <linearGradient id="paint0_linear" x1="74.1059" y1="50.9228" x2="70.1154" y2="28.7534" gradientUnits="userSpaceOnUse">
      <stop stop-color="#3AC1D1"></stop>
      <stop offset="1" stop-color="#85D3E7"></stop>
    </linearGradient>
    <clipPath id="clip0">
      <rect width="160" height="160" fill="white" transform="translate(0.5)"></rect>
    </clipPath>
  </defs>
  <g clip-path="url(#clip0)">
    <path d="M83.7007 19.6999L55.0007 24.2999C50.2007 25.0999 46.9007 29.5999 47.7007 34.3999L51.9007 60.5999L98.1007 53.1999L93.9007 26.9999C93.0007 22.1999 88.5007 18.8999 83.7007 19.6999ZM56.8007 34.8999C56.7007 33.9999 57.3007 33.0999 58.2007 32.9999L83.4007 28.8999C84.3007 28.7999 85.2007 29.3999 85.3007 30.2999L88.2007 48.4999L59.7007 53.0999L56.8007 34.8999Z" fill="url(#paint0_linear)"></path>
    <path d="M141.1 122.9L32.9004 140.3C29.4004 140.9 26.0004 138.5 25.4004 134.9L15.3004 72.0999C13.6004 61.2999 20.9004 51.1999 31.7004 49.4999L113.8 36.2999C124.6 34.5999 134.7 41.8999 136.4 52.6999L146.5 115.5C147 119 144.6 122.3 141.1 122.9Z" fill="#85D3E7"></path>
    <path d="M15.8008 74.3999L136.701 54.8999" stroke="#C6E8ED" stroke-width="4.4522" stroke-miterlimit="10"></path>
    <path d="M115.058 46.9379L107.555 48.1455L111.146 70.4585L118.649 69.2508L115.058 46.9379Z" fill="#C6E8ED"></path>
    <path d="M42.5621 58.6361L35.0586 59.8438L38.6497 82.1567L46.1532 80.9491L42.5621 58.6361Z" fill="#C6E8ED"></path>
    <path d="M147.9 154.2C154.362 154.2 159.6 148.962 159.6 142.5C159.6 136.038 154.362 130.8 147.9 130.8C141.438 130.8 136.2 136.038 136.2 142.5C136.2 148.962 141.438 154.2 147.9 154.2Z" fill="#E1DFDD"></path>
    <path d="M133.7 159C139.223 159 143.7 154.523 143.7 149C143.7 143.477 139.223 139 133.7 139C128.177 139 123.7 143.477 123.7 149C123.7 154.523 128.177 159 133.7 159Z" fill="#E1DFDD"></path>
    <path d="M25.1002 32C28.911 32 32.0002 28.9107 32.0002 25.1C32.0002 21.2892 28.911 18.2 25.1002 18.2C21.2894 18.2 18.2002 21.2892 18.2002 25.1C18.2002 28.9107 21.2894 32 25.1002 32Z" fill="#E1DFDD"></path>
    <path d="M140.4 151.4C141.2 152.1 142 152.6 142.9 153C144.6 149.1 143.6 144.3 140.2 141.4C139.1 140.5 137.9 139.9 136.7 139.5C135.5 143.7 136.8 148.4 140.4 151.4Z" fill="#C8C6C4"></path>
  </g>
</svg>
