<svg width="92" height="105" viewBox="0 0 92 105" fill="none" xmlns="http://www.w3.org/2000/svg">
<path d="M1.74921 58.5007L7.15921 63.7807C7.57568 64.189 7.90685 64.6759 8.13345 65.2132C8.36006 65.7506 8.47759 66.3276 8.47922 66.9108V99.1808C8.50541 100.129 8.90619 101.029 9.59393 101.683C10.2817 102.337 11.2004 102.692 12.1492 102.671H38.0892C42.4597 102.514 46.7758 101.65 50.8692 100.111L63.1892 94.9608C64.4443 94.3351 65.518 93.3979 66.3076 92.2389C67.0972 91.0799 67.5763 89.7377 67.6992 88.3407V69.2807C67.6964 67.9816 68.0599 66.708 68.7479 65.6061C69.436 64.5041 70.4207 63.6185 71.5892 63.0508C77.0633 60.448 81.6904 56.3511 84.9371 51.2325C88.1837 46.114 89.9177 40.1821 89.9392 34.1207C89.9378 29.8895 89.0914 25.7012 87.4498 21.8015C85.8081 17.9018 83.4043 14.3691 80.3792 11.4108C77.2027 8.27343 73.4327 5.80059 69.2896 4.13683C65.1465 2.47306 60.7134 1.65168 56.2492 1.72069H41.7992C31.4592 1.72069 22.3792 5.10071 16.2292 11.2407C13.711 13.7687 11.7271 16.7775 10.3957 20.088C9.06425 23.3985 8.4125 26.9431 8.47922 30.5107V42.0207L8.18921 42.8008L1.74921 58.5007Z" fill="white"/>
<path d="M38.0892 104.421H12.1492C10.7363 104.442 9.37254 103.903 8.35664 102.92C7.34073 101.938 6.75552 100.594 6.72922 99.1807V66.9107C6.72801 66.5622 6.65754 66.2175 6.52192 65.8964C6.3863 65.5754 6.18822 65.2845 5.93922 65.0407L0.529212 59.7607C0.279564 59.5165 0.108224 59.2036 0.0369939 58.8616C-0.0342364 58.5197 -0.00213034 58.1643 0.129218 57.8406L6.72922 41.7008V30.5107C6.66074 26.7129 7.35669 22.94 8.77569 19.4166C10.1947 15.8931 12.3077 12.691 14.9892 10.0007C21.4692 3.53068 30.9892 0.000684277 41.7992 0.000684277H56.6392C61.2726 -0.0282061 65.866 0.857992 70.1561 2.60835C74.4462 4.35871 78.3485 6.93886 81.6392 10.2008C84.8372 13.3252 87.3768 17.0585 89.108 21.1806C90.8393 25.3027 91.7272 29.7299 91.7192 34.2008C91.683 40.5834 89.8471 46.8263 86.4226 52.2126C82.998 57.5989 78.1236 61.91 72.3592 64.6507C71.486 65.0738 70.7499 65.7345 70.2351 66.557C69.7204 67.3795 69.448 68.3305 69.4492 69.3007V88.3607C69.3307 90.1049 68.7506 91.7863 67.7683 93.2325C66.7861 94.6787 65.4369 95.8376 63.8592 96.5907L51.5492 101.741C47.2421 103.374 42.6934 104.279 38.0892 104.421ZM3.81922 58.0808L8.38921 62.5307C8.97013 63.103 9.43186 63.7848 9.74769 64.5366C10.0635 65.2884 10.2272 66.0953 10.2292 66.9107V99.1807C10.2551 99.6654 10.4714 100.12 10.831 100.446C11.1906 100.772 11.6644 100.943 12.1492 100.921H38.0892C42.2297 100.762 46.3181 99.9416 50.1992 98.4907L62.4892 93.3507C63.4245 92.8579 64.2262 92.1455 64.8254 91.2746C65.4246 90.4037 65.8034 89.4003 65.9292 88.3507V69.2907C65.9255 67.6642 66.3805 66.0697 67.2419 64.69C68.1033 63.3104 69.3362 62.2014 70.7992 61.4907C75.9773 59.0289 80.3549 55.1548 83.4279 50.3144C86.501 45.474 88.1445 39.8641 88.1692 34.1307C88.1753 30.1328 87.3823 26.1741 85.8367 22.4871C84.2912 18.8001 82.0243 15.4592 79.1692 12.6607C76.2014 9.72499 72.684 7.40314 68.818 5.82795C64.9521 4.25277 60.8136 3.45508 56.6392 3.48066H41.8592C31.9292 3.48066 23.2892 6.68067 17.4692 12.4807C15.1174 14.8424 13.2645 17.6531 12.0208 20.7453C10.777 23.8376 10.1678 27.1482 10.2292 30.4807V41.9907C10.2277 42.2021 10.1905 42.4117 10.1192 42.6107L9.82922 43.3907L3.81922 58.0808Z" fill="#4D4D4D"/>
<path d="M37.3092 74.0907C34.8592 75.1807 32.5192 76.0907 31.2192 76.0907C27.7092 76.0907 24.8892 73.9807 24.8892 69.7607C24.8892 65.5407 27.7092 63.4308 31.2192 63.4308C32.5192 63.4308 34.8592 64.2907 37.3092 65.3707V52.7507H49.2492C48.4695 54.3536 47.9561 56.0727 47.7292 57.8407C47.7292 61.3607 49.8392 64.1708 54.0592 64.1708C58.2792 64.1708 60.3992 61.3607 60.3992 57.8407C60.1723 56.0727 59.659 54.3536 58.8792 52.7507H83.8792C88.3383 46.5875 90.434 39.0271 89.7842 31.4477C89.1344 23.8684 85.7824 16.775 80.3392 11.4608C77.1627 8.32348 73.3927 5.85064 69.2496 4.18688C65.1065 2.52311 60.6734 1.70173 56.2092 1.77074H41.7992C31.4592 1.77074 22.3792 5.15076 16.2292 11.2908C13.711 13.8187 11.7271 16.8275 10.3957 20.138C9.06425 23.4486 8.4125 26.9932 8.47922 30.5608V42.0708L8.18921 42.8507L1.74921 58.5508L7.15921 63.8308C7.57568 64.239 7.90685 64.7258 8.13345 65.2632C8.36006 65.8005 8.47759 66.3776 8.47922 66.9608V99.2307C8.50541 100.179 8.90619 101.079 9.59393 101.733C10.2817 102.387 11.2004 102.742 12.1492 102.721H37.3092V74.0907Z" fill="#4AC0A4"/>
<path d="M37.3092 104.421H12.1492C10.7363 104.442 9.37254 103.903 8.35664 102.921C7.34073 101.938 6.75552 100.594 6.72922 99.1808V66.9108C6.72801 66.5623 6.65754 66.2175 6.52192 65.8965C6.3863 65.5755 6.18822 65.2846 5.93922 65.0408L0.529212 59.7608C0.279564 59.5165 0.108224 59.2036 0.0369939 58.8617C-0.0342364 58.5198 -0.00213034 58.1643 0.129218 57.8407L6.72922 41.7008V30.5108C6.66074 26.7129 7.35669 22.9401 8.77569 19.4166C10.1947 15.8932 12.3077 12.6911 14.9892 10.0008C21.4692 3.53076 30.9892 0.000755974 41.7992 0.000755974H56.6292C61.2624 -0.0270408 65.8556 0.85959 70.1455 2.60989C74.4354 4.36018 78.3379 6.93982 81.6292 10.2008C87.3635 15.8101 90.8939 23.2911 91.5784 31.2833C92.2629 39.2756 90.0561 47.2481 85.3592 53.7508C85.198 53.9769 84.9849 54.1612 84.7379 54.2882C84.4909 54.4152 84.217 54.4812 83.9392 54.4807H61.4292C61.8459 55.5485 62.089 56.6762 62.1492 57.8208C62.0755 59.9159 61.1915 61.9005 59.6833 63.3566C58.1751 64.8127 56.1606 65.6264 54.0642 65.6264C51.9679 65.6264 49.9534 64.8127 48.4452 63.3566C46.937 61.9005 46.0529 59.9159 45.9792 57.8208C46.0395 56.6762 46.2825 55.5485 46.6992 54.4807H39.0592V65.3507C39.0593 65.6423 38.9865 65.9293 38.8476 66.1856C38.7086 66.4419 38.5078 66.6593 38.2634 66.8183C38.019 66.9772 37.7387 67.0726 37.4481 67.0957C37.1575 67.1189 36.8657 67.0691 36.5992 66.9508C32.9492 65.3308 31.5992 65.1608 31.2192 65.1608C29.8492 65.1608 26.6392 65.6007 26.6392 69.7407C26.6392 73.8807 29.8492 74.3208 31.2192 74.3208C31.6192 74.3208 32.9492 74.1408 36.5992 72.5208C36.8663 72.4069 37.1573 72.3601 37.4466 72.3845C37.7359 72.4089 38.0149 72.5038 38.2592 72.6608C38.5046 72.8172 38.7065 73.033 38.8464 73.2882C38.9862 73.5434 39.0594 73.8297 39.0592 74.1208V102.651C39.0605 102.882 39.0163 103.111 38.9291 103.325C38.8419 103.539 38.7133 103.734 38.5508 103.898C38.3883 104.063 38.195 104.193 37.982 104.283C37.769 104.373 37.5404 104.419 37.3092 104.421V104.421ZM3.81922 58.0808L8.38921 62.5308C8.97013 63.103 9.43186 63.7848 9.74769 64.5366C10.0635 65.2884 10.2272 66.0953 10.2292 66.9108V99.1808C10.2551 99.6654 10.4714 100.12 10.831 100.446C11.1906 100.772 11.6644 100.943 12.1492 100.921H35.5592V76.7108C34.1911 77.3341 32.7199 77.7002 31.2192 77.7908C29.0763 77.7908 27.0211 76.9395 25.5058 75.4242C23.9905 73.9089 23.1392 71.8538 23.1392 69.7108C23.1392 67.5679 23.9905 65.5126 25.5058 63.9973C27.0211 62.482 29.0763 61.6308 31.2192 61.6308C32.7188 61.7211 34.1895 62.0838 35.5592 62.7008V52.7008C35.5592 52.2367 35.7436 51.7916 36.0718 51.4634C36.4 51.1352 36.8451 50.9508 37.3092 50.9508H49.2492C49.5387 50.9487 49.824 51.0188 50.0795 51.1548C50.335 51.2908 50.5526 51.4884 50.7124 51.7296C50.8723 51.9709 50.9694 52.2483 50.995 52.5366C51.0207 52.8249 50.974 53.1151 50.8592 53.3808C49.6192 56.3808 49.4792 57.4508 49.4792 57.7908C49.4792 59.1708 49.9292 62.3708 54.0592 62.3708C58.1892 62.3708 58.6492 59.1708 58.6492 57.7908C58.6492 57.4508 58.5092 56.3308 57.2692 53.3808C57.1544 53.1151 57.1078 52.8249 57.1334 52.5366C57.159 52.2483 57.2562 51.9709 57.416 51.7296C57.5759 51.4884 57.7934 51.2908 58.0489 51.1548C58.3044 51.0188 58.5898 50.9487 58.8792 50.9508H83.0092C86.9597 45.1278 88.7376 38.1012 88.032 31.1C87.3264 24.0988 84.1822 17.5685 79.1492 12.6508C76.1395 9.67334 72.5651 7.32746 68.6359 5.751C64.7068 4.17454 60.5022 3.39923 56.2692 3.47073H41.8592C31.9292 3.47073 23.2892 6.67073 17.4692 12.4707C15.1174 14.8325 13.2645 17.6431 12.0208 20.7354C10.777 23.8276 10.1678 27.1383 10.2292 30.4707V41.9807C10.2277 42.1921 10.1905 42.4017 10.1192 42.6007L9.82922 43.3808L3.81922 58.0808Z" fill="#4D4D4D"/>
<path d="M43.9392 29.3607C42.6392 29.3607 40.2992 30.2207 37.8492 31.3607V1.9408C29.1592 2.7008 21.5792 5.94077 16.2292 11.2908C13.711 13.8188 11.7271 16.8275 10.3957 20.1381C9.06425 23.4486 8.4125 26.9932 8.47922 30.5608V42.0708L8.18921 42.8507L4.12921 52.7507H16.2792C15.4995 51.1479 14.9861 49.4287 14.7592 47.6608C14.7592 44.1408 16.8692 41.3308 21.0992 41.3308C25.3292 41.3308 27.4292 44.1408 27.4292 47.6608C27.2023 49.4287 26.689 51.1479 25.9092 52.7507H37.8492V40.1307C40.2992 41.2107 42.6392 42.0708 43.9392 42.0708C47.4492 42.0708 50.2692 39.9607 50.2692 35.7407C50.2692 31.5207 47.4892 29.3607 43.9392 29.3607Z" fill="white"/>
<path d="M37.8492 54.4508H25.9092C25.6198 54.4529 25.3344 54.3827 25.0789 54.2467C24.8234 54.1107 24.6059 53.9131 24.446 53.6718C24.2862 53.4306 24.189 53.1531 24.1634 52.8648C24.1378 52.5765 24.1844 52.2864 24.2992 52.0207C25.5392 49.0707 25.6792 47.9507 25.6792 47.6107C25.6792 46.2307 25.2292 43.0307 21.0992 43.0307C16.9692 43.0307 16.5092 46.2307 16.5092 47.6107C16.5092 47.9507 16.6492 49.0707 17.8892 52.0207C18.004 52.2864 18.0507 52.5765 18.0251 52.8648C17.9994 53.1531 17.9023 53.4306 17.7424 53.6718C17.5825 53.9131 17.365 54.1107 17.1095 54.2467C16.854 54.3827 16.5686 54.4529 16.2792 54.4508H4.12922C3.84325 54.4482 3.5622 54.376 3.3104 54.2404C3.0586 54.1049 2.84365 53.91 2.68411 53.6727C2.52457 53.4354 2.42526 53.1626 2.39478 52.8783C2.36431 52.5939 2.4036 52.3065 2.50923 52.0407L6.72923 41.7008V30.5107C6.66074 26.7129 7.35669 22.94 8.77569 19.4166C10.1947 15.8931 12.3078 12.691 14.9892 10.0007C20.6492 4.3507 28.4992 0.940721 37.6992 0.150721C37.9417 0.126521 38.1866 0.154074 38.4176 0.231654C38.6486 0.309233 38.8605 0.435018 39.0392 0.600672C39.2167 0.765272 39.3581 0.964934 39.4545 1.18698C39.5509 1.40902 39.6002 1.64865 39.5992 1.89071V28.6507C40.9674 28.0275 42.4385 27.6614 43.9392 27.5708C46.0822 27.5708 48.1373 28.422 49.6526 29.9373C51.1679 31.4526 52.0192 33.5078 52.0192 35.6507C52.0192 37.7937 51.1679 39.8488 49.6526 41.3641C48.1373 42.8794 46.0822 43.7307 43.9392 43.7307C42.4394 43.6414 40.9686 43.2788 39.5992 42.6607V52.6607C39.6046 52.8939 39.5632 53.1258 39.4777 53.3427C39.3921 53.5597 39.2641 53.7574 39.101 53.9242C38.938 54.0909 38.7433 54.2234 38.5283 54.3138C38.3133 54.4042 38.0824 54.4508 37.8492 54.4508ZM28.4592 50.9508H36.0992V40.0808C36.0991 39.7892 36.1719 39.5022 36.3109 39.2459C36.4499 38.9897 36.6507 38.7722 36.8951 38.6132C37.1395 38.4543 37.4197 38.3589 37.7103 38.3358C38.001 38.3126 38.2928 38.3624 38.5592 38.4807C42.2092 40.1007 43.5592 40.2707 43.9392 40.2707C45.3092 40.2707 48.5192 39.8308 48.5192 35.6908C48.5192 31.5508 45.3092 31.1107 43.9392 31.1107C43.5392 31.1107 42.2092 31.2907 38.5592 32.9107C38.2926 33.0263 38.0015 33.0741 37.7119 33.0498C37.4223 33.0254 37.1432 32.9298 36.8996 32.7713C36.6559 32.6129 36.4553 32.3966 36.3157 32.1417C36.176 31.8868 36.1017 31.6014 36.0992 31.3108V3.84066C28.5592 4.84066 22.0992 7.84068 17.4692 12.4807C15.1174 14.8424 13.2645 17.6531 12.0208 20.7453C10.777 23.8376 10.1678 27.1482 10.2292 30.4807V41.9907C10.2277 42.2021 10.1905 42.4117 10.1192 42.6107L9.82922 43.3907L6.73922 50.9207H13.7392C13.3225 49.853 13.0795 48.7254 13.0192 47.5808C13.0929 45.4857 13.977 43.501 15.4852 42.0449C16.9934 40.5888 19.0079 39.7751 21.1042 39.7751C23.2006 39.7751 25.2151 40.5888 26.7233 42.0449C28.2315 43.501 29.1155 45.4857 29.1892 47.5808C29.1386 48.7344 28.9022 49.8724 28.4892 50.9508H28.4592Z" fill="#4D4D4D"/>
</svg>
