<svg width="93" height="116" viewBox="0 0 93 116" fill="none" xmlns="http://www.w3.org/2000/svg">
<path d="M44.4611 28.6265C37.2611 28.6265 13.7811 30.3365 13.7811 52.3265V82.9265C13.7811 99.3765 27.5411 112.746 44.4611 112.746C61.3811 112.746 75.1312 99.3765 75.1312 82.9265V52.3265C75.1312 30.3365 51.6511 28.6265 44.4611 28.6265Z" fill="white"/>
<path d="M44.4611 115.006C26.3011 115.006 11.5311 100.616 11.5311 82.9264V52.3264C11.5311 28.2364 36.7311 26.3264 44.4611 26.3264C52.1911 26.3264 77.3911 28.1964 77.3911 52.3264V82.9264C77.3911 100.616 62.6111 115.006 44.4611 115.006ZM44.4611 30.8764C35.9111 30.8764 16.0411 32.9664 16.0411 52.3264V82.9264C16.0411 98.1264 28.7911 110.496 44.4611 110.496C60.1311 110.496 72.8812 98.1264 72.8812 82.9264V52.3264C72.8812 32.9664 53.0011 30.8764 44.4611 30.8764V30.8764Z" fill="#4D4D4D"/>
<path d="M32.2912 74.2665C34.7885 74.2625 37.2564 73.7273 39.5311 72.6965C40.0589 72.4285 40.4599 71.9634 40.6471 71.4018C40.8342 70.8403 40.7926 70.2276 40.5311 69.6965C40.2574 69.1743 39.7921 68.7784 39.2327 68.5919C38.6733 68.4055 38.0635 68.4429 37.5311 68.6965C37.4311 68.7565 32.3811 71.1265 27.5311 68.6965C27.2655 68.5244 26.9665 68.4102 26.6537 68.3615C26.3409 68.3128 26.0213 68.3307 25.7159 68.4139C25.4105 68.4971 25.1261 68.6439 24.8812 68.8446C24.6364 69.0452 24.4366 69.2953 24.2951 69.5785C24.1535 69.8616 24.0733 70.1715 24.0596 70.4878C24.046 70.804 24.0992 71.1196 24.2159 71.4139C24.3326 71.7082 24.51 71.9745 24.7366 72.1955C24.9633 72.4166 25.234 72.5873 25.5311 72.6965C27.6314 73.7393 29.9463 74.277 32.2912 74.2665V74.2665Z" fill="#4D4D4D"/>
<path d="M44.6912 101.306C42.1891 101.306 39.7164 100.767 37.4412 99.7264C36.9767 99.4255 36.6394 98.9639 36.4939 98.4299C36.3484 97.8959 36.4048 97.327 36.6523 96.832C36.8998 96.337 37.3211 95.9506 37.8356 95.7466C38.3501 95.5427 38.9217 95.5355 39.4412 95.7264C39.5512 95.7764 44.5912 98.1564 49.4412 95.7264C49.9606 95.5355 50.5322 95.5427 51.0467 95.7466C51.5612 95.9506 51.9825 96.337 52.23 96.832C52.4775 97.327 52.5339 97.8959 52.3884 98.4299C52.2428 98.9639 51.9056 99.4255 51.4412 99.7264C49.3454 100.773 47.0337 101.314 44.6912 101.306V101.306Z" fill="#4D4D4D"/>
<path d="M58.2912 74.2665C55.7936 74.264 53.3254 73.7288 51.0512 72.6965C50.5867 72.3956 50.2495 71.9339 50.104 71.4C49.9584 70.866 50.0148 70.2971 50.2623 69.8021C50.5098 69.3071 50.9311 68.9207 51.4456 68.7167C51.9601 68.5128 52.5317 68.5056 53.0512 68.6965C53.1612 68.7565 58.2112 71.1265 63.0512 68.6965C63.5706 68.5056 64.1423 68.5128 64.6568 68.7167C65.1713 68.9207 65.5925 69.3071 65.84 69.8021C66.0875 70.2971 66.1439 70.866 65.9984 71.4C65.8529 71.9339 65.5156 72.3956 65.0512 72.6965C62.9509 73.7394 60.636 74.277 58.2912 74.2665V74.2665Z" fill="#4D4D4D"/>
<path d="M70.3411 61.0865L32.1611 34.7965L60.7811 11.3865L87.2211 43.0965C90.8811 47.4865 90.8511 53.5465 87.1411 56.6365L81.8011 62.1365C81.5957 62.3505 81.3677 62.5416 81.1212 62.7065C78.3512 64.5065 73.1411 63.7165 70.3411 61.0865Z" fill="#4AC0A4"/>
<path d="M77.2911 65.9264C74.224 65.9356 71.2549 64.8466 68.9212 62.8565L30.9211 36.6565C30.6344 36.4575 30.3976 36.1948 30.2293 35.8889C30.0611 35.5831 29.966 35.2425 29.9515 34.8937C29.937 34.545 30.0034 34.1976 30.1456 33.8789C30.2878 33.5601 30.5019 33.2786 30.7711 33.0564L59.3911 9.64644C59.8516 9.27111 60.4413 9.09216 61.0327 9.14831C61.624 9.20445 62.1696 9.49119 62.5512 9.94646L88.9912 41.6565C91.0632 44.0883 92.2137 47.1716 92.2412 50.3664C92.2658 51.8632 91.9636 53.3472 91.3557 54.7151C90.7477 56.083 89.8486 57.3018 88.7211 58.2865L83.4611 63.7065C83.1371 64.0443 82.7747 64.3429 82.3812 64.5965C80.8479 65.5204 79.0805 65.9822 77.2911 65.9264V65.9264ZM35.9011 34.6464L71.6112 59.2365C71.7045 59.2978 71.7916 59.3681 71.8712 59.4465C74.1012 61.5365 78.1412 61.9465 79.8712 60.8165C79.9761 60.7394 80.0732 60.6523 80.1611 60.5564L85.5012 55.0665C85.5529 55.0081 85.6098 54.9545 85.6712 54.9065C86.3213 54.3397 86.8379 53.6359 87.1837 52.8458C87.5295 52.0556 87.6959 51.1986 87.6712 50.3364C87.646 48.2069 86.8664 46.1554 85.4711 44.5465L60.4711 14.5465L35.9011 34.6464Z" fill="#4D4D4D"/>
<path d="M73.5611 32.4665L14.2911 65.2465C11.5211 66.7765 7.82111 65.3865 6.02111 62.1365L5.55113 61.2865C0.401134 51.9865 1.28114 40.8865 7.68114 34.2865L32.6211 8.70651C43.9611 -2.93349 63.8911 1.76651 73.0011 18.2365L75.4911 22.7365C77.5511 26.4065 76.6611 30.7465 73.5611 32.4665Z" fill="#4AC0A4"/>
<path d="M11.9011 68.1164C10.2829 68.0661 8.70707 67.5869 7.33483 66.7277C5.96259 65.8685 4.84316 64.6602 4.09112 63.2265L3.61114 62.3765C-2.00886 52.2065 -0.988864 40.0264 6.11114 32.7464L31.0511 7.15645C33.6697 4.4549 36.8976 2.42034 40.4644 1.22329C44.0312 0.0262295 47.833 -0.298453 51.5511 0.276447C61.0911 1.55645 69.8711 7.87644 75.0111 17.1764L77.5012 21.6764C80.1212 26.3964 78.8311 32.1165 74.6511 34.4365L15.4311 67.2165C14.3499 67.8112 13.1351 68.1209 11.9011 68.1164V68.1164ZM48.0311 4.56646C45.4714 4.54177 42.9334 5.03789 40.5713 6.02465C38.2093 7.0114 36.0726 8.46818 34.2911 10.3064L9.36114 35.8865C3.64114 41.7565 2.90111 51.7565 7.58111 60.1965L8.05114 61.0465C9.24114 63.2065 11.5811 64.1964 13.2611 63.2764L72.4911 30.4964C74.4911 29.3764 74.9911 26.4065 73.5811 23.8565L71.0911 19.3565C66.6311 11.2965 59.0911 5.83645 50.9711 4.74645C49.9966 4.61695 49.0141 4.5568 48.0311 4.56646V4.56646Z" fill="#4D4D4D"/>
</svg>
