<svg width="119" height="92" viewBox="0 0 119 92" fill="none" xmlns="http://www.w3.org/2000/svg">
<path d="M28.97 78.0753C26.9746 78.0993 25.0512 77.3303 23.6225 75.9371C22.1937 74.544 21.3764 72.6407 21.35 70.6453C21.35 66.5353 28.97 59.4953 28.97 59.4953C28.97 59.4953 36.59 66.4953 36.59 70.6453C36.5636 72.6407 35.7463 74.544 34.3175 75.9371C32.8888 77.3303 30.9654 78.0993 28.97 78.0753V78.0753Z" fill="white"/>
<path d="M59.58 78.0753C57.5846 78.0993 55.6612 77.3303 54.2325 75.9371C52.8037 74.544 51.9863 72.6407 51.96 70.6453C51.96 66.5353 59.58 59.4953 59.58 59.4953C59.58 59.4953 67.2 66.4953 67.2 70.6453C67.1736 72.6407 66.3563 74.544 64.9275 75.9371C63.4987 77.3303 61.5754 78.0993 59.58 78.0753Z" fill="white"/>
<path d="M90.18 78.0753C88.1846 78.0993 86.2612 77.3303 84.8325 75.9371C83.4037 74.544 82.5864 72.6407 82.56 70.6453C82.56 66.5353 90.18 59.4953 90.18 59.4953C90.18 59.4953 97.8 66.4953 97.8 70.6453C97.7736 72.6407 96.9563 74.544 95.5275 75.9371C94.0988 77.3303 92.1754 78.0993 90.18 78.0753V78.0753Z" fill="white"/>
<path d="M2.30002 48.3453V89.2253H116.61V48.3453H2.30002ZM28.97 78.0753C26.9746 78.0994 25.0513 77.3303 23.6225 75.9372C22.1937 74.544 21.3764 72.6407 21.35 70.6453C21.35 66.5353 28.97 59.4953 28.97 59.4953C28.97 59.4953 36.59 66.4953 36.59 70.6453C36.5637 72.6407 35.7463 74.544 34.3176 75.9372C32.8888 77.3303 30.9654 78.0994 28.97 78.0753V78.0753ZM59.46 78.0753C57.4681 78.094 55.5498 77.3226 54.1254 75.9301C52.701 74.5375 51.8864 72.6372 51.86 70.6453C51.86 66.5353 59.48 59.4953 59.48 59.4953C59.48 59.4953 67.1 66.4953 67.1 70.6453C67.087 71.6351 66.8789 72.6125 66.4878 73.5218C66.0966 74.431 65.5301 75.2543 64.8205 75.9443C64.1109 76.6344 63.2722 77.1778 62.3524 77.5435C61.4326 77.9092 60.4497 78.0899 59.46 78.0753V78.0753ZM89.94 78.0753C87.9446 78.0994 86.0213 77.3303 84.5925 75.9372C83.1637 74.544 82.3464 72.6407 82.32 70.6453C82.32 66.5353 89.94 59.4953 89.94 59.4953C89.94 59.4953 97.56 66.4953 97.56 70.6453C97.5337 72.6407 96.7163 74.544 95.2875 75.9372C93.8588 77.3303 91.9354 78.0994 89.94 78.0753V78.0753Z" fill="#4AC0A4"/>
<path d="M116.61 91.5253H2.3C1.99796 91.5253 1.69888 91.4658 1.41983 91.3502C1.14078 91.2347 0.887235 91.0652 0.67366 90.8517C0.460086 90.6381 0.290665 90.3845 0.175079 90.1055C0.0594935 89.8264 1.04137e-10 89.5274 1.04109e-10 89.2253V48.3453C-2.87524e-06 48.0438 0.0595544 47.7451 0.175262 47.4667C0.290971 47.1882 0.460549 46.9353 0.674255 46.7225C0.887962 46.5097 1.14159 46.3412 1.42058 46.2268C1.69957 46.1123 1.99844 46.054 2.3 46.0553H116.61C116.912 46.054 117.21 46.1123 117.489 46.2268C117.768 46.3412 118.022 46.5097 118.236 46.7225C118.449 46.9353 118.619 47.1882 118.735 47.4667C118.85 47.7451 118.91 48.0438 118.91 48.3453V89.2253C118.91 89.8353 118.668 90.4203 118.236 90.8517C117.805 91.283 117.22 91.5253 116.61 91.5253ZM4.61 86.9353H114.32V50.6453H4.60001L4.61 86.9353ZM89.95 80.3753C87.3454 80.3967 84.8386 79.3844 82.979 77.5605C81.1195 75.7366 80.059 73.2499 80.03 70.6453C80.03 65.7853 87.03 59.0953 88.39 57.8053C88.8159 57.4153 89.3725 57.199 89.95 57.199C90.5275 57.199 91.0841 57.4153 91.51 57.8053C92.86 59.0753 99.86 65.7853 99.86 70.6453C99.831 73.2499 98.7705 75.7366 96.9109 77.5605C95.0514 79.3844 92.5446 80.3967 89.94 80.3753H89.95ZM89.95 62.7053C87.17 65.5853 84.62 69.0353 84.62 70.6453C84.6795 72.0177 85.2665 73.3141 86.2586 74.2641C87.2507 75.2142 88.5713 75.7445 89.945 75.7445C91.3186 75.7445 92.6392 75.2142 93.6314 74.2641C94.6235 73.3141 95.2105 72.0177 95.27 70.6453C95.26 69.0753 92.72 65.5853 89.94 62.7053H89.95ZM59.46 80.3753C56.8554 80.3967 54.3486 79.3844 52.4891 77.5605C50.6295 75.7366 49.569 73.2499 49.54 70.6453C49.54 65.7853 56.54 59.0953 57.9 57.8053C58.3232 57.4139 58.8785 57.1964 59.455 57.1964C60.0315 57.1964 60.5868 57.4139 61.01 57.8053C62.41 59.0953 69.37 65.8053 69.37 70.6453C69.341 73.2481 68.2818 75.7334 66.4245 77.557C64.5671 79.3806 62.0629 80.394 59.46 80.3753V80.3753ZM59.46 62.7053C56.67 65.5853 54.13 69.0353 54.13 70.6453C54.1895 72.0177 54.7765 73.3141 55.7686 74.2641C56.7608 75.2142 58.0814 75.7445 59.455 75.7445C60.8286 75.7445 62.1493 75.2142 63.1414 74.2641C64.1335 73.3141 64.7205 72.0177 64.78 70.6453C64.78 69.0753 62.24 65.5853 59.46 62.7053ZM28.97 80.3753C26.3671 80.394 23.8629 79.3806 22.0055 77.557C20.1482 75.7334 19.089 73.2481 19.06 70.6453C19.06 65.7853 26.06 59.0953 27.41 57.8053C27.8359 57.4153 28.3925 57.199 28.97 57.199C29.5475 57.199 30.1041 57.4153 30.53 57.8053C31.93 59.0953 38.89 65.8053 38.89 70.6453C38.861 73.2499 37.8005 75.7366 35.9409 77.5605C34.0814 79.3844 31.5746 80.3967 28.97 80.3753V80.3753ZM28.97 62.7053C26.19 65.5853 23.65 69.0353 23.65 70.6453C23.7095 72.0177 24.2965 73.3141 25.2886 74.2641C26.2808 75.2142 27.6014 75.7445 28.975 75.7445C30.3486 75.7445 31.6693 75.2142 32.6614 74.2641C33.6535 73.3141 34.2405 72.0177 34.3 70.6453C34.3 69.0753 31.76 65.5853 28.97 62.7053Z" fill="#4D4D4D"/>
<path d="M29.12 62.8353C28.51 62.8353 27.925 62.593 27.4937 62.1617C27.0623 61.7303 26.82 61.1453 26.82 60.5353C26.82 18.6853 45.15 1.40533 45.93 0.695327C46.1519 0.491778 46.4118 0.333935 46.6947 0.230811C46.9777 0.127687 47.2781 0.0813008 47.579 0.094301C47.8799 0.107301 48.1752 0.179433 48.4482 0.306578C48.7212 0.433724 48.9664 0.613393 49.17 0.835327C49.3735 1.05726 49.5314 1.31711 49.6345 1.60005C49.7376 1.88298 49.784 2.18346 49.771 2.48432C49.758 2.78518 49.6859 3.08054 49.5587 3.35352C49.4316 3.62651 49.2519 3.87178 49.03 4.07533C48.8 4.29533 31.41 20.9553 31.41 60.5353C31.41 61.1436 31.1691 61.7271 30.7399 62.1581C30.3107 62.5892 29.7283 62.8327 29.12 62.8353V62.8353Z" fill="#4D4D4D"/>
<path d="M59.72 62.8353C59.4184 62.8353 59.1198 62.7758 58.8413 62.66C58.5628 62.5443 58.3099 62.3748 58.0972 62.1611C57.8844 61.9473 57.7159 61.6937 57.6014 61.4147C57.4869 61.1357 57.4287 60.8369 57.43 60.5353C57.43 18.6853 75.75 1.40531 76.53 0.695312C76.7481 0.471329 77.0096 0.294171 77.2985 0.174661C77.5874 0.0551511 77.8977 -0.0042004 78.2103 0.000231067C78.5229 0.00466253 78.8313 0.0727841 79.1168 0.200435C79.4022 0.328086 79.6585 0.512585 79.8702 0.742661C80.0819 0.972737 80.2445 1.24356 80.348 1.53858C80.4515 1.8336 80.4938 2.14663 80.4722 2.45853C80.4507 2.77044 80.3658 3.07468 80.2227 3.35266C80.0796 3.63065 79.8813 3.87654 79.64 4.07531C79.4 4.29531 62.02 20.9553 62.02 60.5353C62.02 61.1453 61.7777 61.7303 61.3463 62.1617C60.915 62.593 60.33 62.8353 59.72 62.8353Z" fill="#4D4D4D"/>
<path d="M90.33 62.8353C89.72 62.8353 89.135 62.593 88.7036 62.1617C88.2723 61.7303 88.03 61.1453 88.03 60.5353C88.03 18.6853 106.36 1.40533 107.14 0.695327C107.362 0.491778 107.622 0.333935 107.905 0.230811C108.188 0.127687 108.488 0.0813008 108.789 0.094301C109.09 0.107301 109.385 0.179433 109.658 0.306578C109.931 0.433724 110.176 0.613393 110.38 0.835327C110.584 1.05726 110.741 1.31711 110.845 1.60005C110.948 1.88298 110.994 2.18346 110.981 2.48432C110.968 2.78518 110.896 3.08054 110.769 3.35352C110.642 3.62651 110.462 3.87178 110.24 4.07533C110.01 4.29533 92.62 20.9553 92.62 60.5353C92.62 61.1436 92.379 61.7271 91.9499 62.1581C91.5207 62.5892 90.9383 62.8327 90.33 62.8353V62.8353Z" fill="#4D4D4D"/>
</svg>
