<svg width="78" height="121" viewBox="0 0 78 121" fill="none" xmlns="http://www.w3.org/2000/svg">
<path d="M35.1975 67.2224C31.2555 67.3609 27.4367 68.6315 24.1975 70.8824C20.9581 68.632 17.1394 67.3615 13.1975 67.2224C10.2801 67.2224 7.48233 68.3813 5.41943 70.4442C3.35653 72.5071 2.19751 75.305 2.19751 78.2224C2.19751 81.1398 3.35653 83.9377 5.41943 86.0006C7.48233 88.0635 10.2801 89.2224 13.1975 89.2224V118.522H35.1975V89.2224C38.1149 89.2224 40.9128 88.0635 42.9757 86.0006C45.0386 83.9377 46.1975 81.1398 46.1975 78.2224C46.1975 75.305 45.0386 72.5071 42.9757 70.4442C40.9128 68.3813 38.1149 67.2224 35.1975 67.2224Z" fill="#4AC0A4"/>
<path d="M35.1976 120.742H13.1976C12.9057 120.744 12.6165 120.687 12.3465 120.576C12.0766 120.465 11.8314 120.302 11.625 120.095C11.4186 119.889 11.255 119.643 11.1439 119.374C11.0328 119.104 10.9763 118.814 10.9776 118.522V91.2224C7.71669 90.6633 4.78434 88.9009 2.76034 86.2837C0.736339 83.6665 -0.231937 80.3851 0.0470847 77.0884C0.326107 73.7916 1.8321 70.7196 4.26718 68.4798C6.70226 66.24 9.88908 64.9955 13.1976 64.9924C17.0825 65.0958 20.8736 66.2089 24.1976 68.2224C27.5201 66.2055 31.3121 65.0921 35.1976 64.9924C38.507 64.993 41.6957 66.2357 44.1327 68.4747C46.5696 70.7137 48.0774 73.7859 48.3578 77.0834C48.6381 80.3809 47.6705 83.6634 45.6465 86.2817C43.6224 88.8999 40.6895 90.6631 37.4277 91.2224V118.522C37.4277 118.815 37.3698 119.104 37.2577 119.374C37.1455 119.644 36.9811 119.889 36.7739 120.096C36.5667 120.302 36.3208 120.465 36.0503 120.576C35.7798 120.687 35.49 120.744 35.1976 120.742V120.742ZM15.4576 116.292H32.9776V89.2224C32.9763 88.9305 33.0328 88.6412 33.1439 88.3713C33.255 88.1013 33.4186 87.8561 33.625 87.6497C33.8314 87.4432 34.0766 87.2798 34.3465 87.1687C34.6165 87.0576 34.9057 87.0011 35.1976 87.0024C37.5209 87.0024 39.7491 86.0795 41.3919 84.4366C43.0348 82.7938 43.9576 80.5657 43.9576 78.2424C43.9576 75.9191 43.0348 73.691 41.3919 72.0482C39.7491 70.4053 37.5209 69.4824 35.1976 69.4824C31.7392 69.6278 28.3916 70.7437 25.5377 72.7024C25.1534 72.9843 24.6892 73.1363 24.2126 73.1363C23.736 73.1363 23.2719 72.9843 22.8877 72.7024C20.0337 70.7437 16.686 69.6278 13.2276 69.4824C10.9043 69.4824 8.67623 70.4053 7.03341 72.0482C5.39059 73.691 4.46762 75.9191 4.46762 78.2424C4.46762 80.5657 5.39059 82.7938 7.03341 84.4366C8.67623 86.0795 10.9043 87.0024 13.2276 87.0024C13.52 87.0011 13.8098 87.0575 14.0803 87.1685C14.3508 87.2795 14.5967 87.4428 14.8039 87.6491C15.0111 87.8554 15.1755 88.1005 15.2877 88.3705C15.3999 88.6405 15.4576 88.93 15.4576 89.2224V116.292Z" fill="#4D4D4D"/>
<path d="M23.7974 39.3524C26.7508 41.9632 30.3917 43.6709 34.2874 44.2724C35.0744 48.1342 36.9598 51.6866 39.7174 54.5024C41.857 56.3345 44.618 57.2759 47.4312 57.1326C50.2444 56.9894 52.8954 55.7724 54.8378 53.7325C56.7803 51.6926 57.8663 48.9852 57.8718 46.1683C57.8773 43.3515 56.8019 40.6399 54.8674 38.5924L75.0673 17.3724L59.1474 2.22241L38.9473 23.4424C37.9217 22.3568 36.6857 21.4915 35.3148 20.8992C33.9438 20.3068 32.4667 19.9998 30.9732 19.9969C29.4798 19.994 28.0014 20.2952 26.6281 20.8823C25.2549 21.4693 24.0156 22.3298 22.9857 23.4113C21.9558 24.4929 21.1569 25.7728 20.6378 27.1731C20.1186 28.5734 19.8901 30.0648 19.966 31.5563C20.042 33.0478 20.4208 34.5082 21.0795 35.8486C21.7382 37.1889 22.663 38.3811 23.7974 39.3524V39.3524Z" fill="#4AC0A4"/>
<path d="M47.2776 59.7524C43.8879 59.7601 40.6268 58.4557 38.1776 56.1124C35.4359 53.3631 33.4635 49.9425 32.4575 46.1923C28.6628 45.3676 25.1499 43.5646 22.2676 40.9623C19.8691 38.6797 18.4154 35.5796 18.1942 32.2759C17.973 28.9723 19.0004 25.7061 21.0731 23.124C23.1458 20.542 26.1124 18.8324 29.3857 18.3339C32.659 17.8354 36.0002 18.5844 38.7476 20.4324L57.5376 0.692309C57.945 0.264442 58.5055 0.0157186 59.0961 0.000719588C59.6867 -0.0142794 60.2591 0.205716 60.6876 0.612353L76.5975 15.7623C77.0254 16.1697 77.2742 16.7302 77.2892 17.3208C77.3042 17.9114 77.0842 18.4838 76.6776 18.9123L57.8776 38.6523C59.3252 40.5947 60.2108 42.8978 60.4376 45.3097C60.6644 47.7215 60.2235 50.1493 59.1633 52.3275C58.1031 54.5057 56.4645 56.3505 54.4264 57.66C52.3883 58.9695 50.0293 59.6933 47.6075 59.7524H47.2776ZM31.3776 22.6423C29.6288 22.6463 27.9213 23.1742 26.4755 24.1579C25.0296 25.1417 23.9116 26.5361 23.2659 28.1612C22.6201 29.7864 22.4761 31.5678 22.8525 33.2756C23.2289 34.9833 24.1084 36.5392 25.3776 37.7424V37.7424C27.9846 40.0209 31.1792 41.5212 34.5975 42.0723C35.0713 42.1316 35.5136 42.3414 35.8592 42.6708C36.2049 43.0003 36.4356 43.4319 36.5176 43.9023C37.2321 47.2903 38.885 50.409 41.2876 52.9023C42.9807 54.4905 45.2267 55.3552 47.5476 55.3124C49.2775 55.2684 50.9557 54.713 52.3704 53.7164C53.785 52.7197 54.8728 51.3264 55.4965 49.7121C56.1201 48.0979 56.2516 46.3352 55.8745 44.6463C55.4974 42.9574 54.6286 41.418 53.3776 40.2223C52.9511 39.8136 52.7042 39.2524 52.691 38.6618C52.6779 38.0712 52.8997 37.4996 53.3076 37.0723L71.9675 17.4723L59.2776 5.39232L40.6175 24.9924C40.2102 25.4202 39.6497 25.6689 39.0591 25.6839C38.4685 25.6989 37.8961 25.479 37.4675 25.0723C35.8298 23.5027 33.646 22.6313 31.3776 22.6423V22.6423Z" fill="#4D4D4D"/>
<path d="M8.91757 60.2723C3.99757 49.5323 9.91756 43.2723 14.6576 41.7023C15.4876 41.4423 16.3176 41.3123 16.6576 42.1223C17.6576 44.7123 20.3376 49.4623 26.0576 50.0323C26.3487 50.0637 26.6185 50.1995 26.8171 50.4146C27.0157 50.6298 27.1295 50.9096 27.1375 51.2023C27.2375 54.5423 33.8875 57.0923 36.1375 58.9923C37.0075 59.7423 37.6175 60.4823 36.1375 60.4823C33.6475 60.4823 27.2376 58.9923 24.6876 61.7023C24.5649 61.81 24.4135 61.8798 24.2519 61.9029C24.0903 61.9259 23.9255 61.9014 23.7776 61.8323C19.0776 59.7423 13.2476 59.6523 10.7776 61.0323C10.6078 61.12 10.421 61.1699 10.2302 61.1784C10.0393 61.1869 9.84894 61.1539 9.67209 61.0816C9.49524 61.0094 9.33618 60.8996 9.2059 60.7598C9.07562 60.6201 8.97729 60.4538 8.91757 60.2723V60.2723Z" fill="white"/>
<path d="M24.1176 64.1323C23.6839 64.1359 23.2544 64.0474 22.8576 63.8724C18.5676 61.9624 13.4776 62.0624 11.8576 62.9724C11.4496 63.2083 10.9964 63.3552 10.5276 63.4034C10.0588 63.4517 9.58506 63.4003 9.13759 63.2524C8.64185 63.083 8.18677 62.8123 7.80116 62.4577C7.41555 62.1031 7.10783 61.6722 6.8976 61.1923C3.8976 54.5723 4.74759 49.7324 6.01759 46.8524C6.76941 45.1491 7.86969 43.6221 9.24757 42.37C10.6254 41.1179 12.2504 40.1682 14.0176 39.5823C17.3476 38.5223 18.4776 40.5824 18.7476 41.3024C19.6376 43.5424 21.7976 47.3623 26.2976 47.8223C27.1277 47.9069 27.8987 48.2902 28.4672 48.901C29.0356 49.5118 29.3628 50.3083 29.3876 51.1423C29.3876 52.2623 32.7976 54.2624 34.3876 55.2224C35.5036 55.826 36.5672 56.5218 37.5675 57.3024C38.1675 57.8124 39.7575 59.1624 39.0975 60.9724C38.8575 61.6224 38.1575 62.7023 36.0975 62.7023C35.4275 62.7023 34.6275 62.6224 33.7075 62.5324C31.5275 62.3224 27.4976 61.9224 26.2676 63.2324C25.9874 63.5182 25.6528 63.7451 25.2836 63.8997C24.9143 64.0542 24.5179 64.1333 24.1176 64.1323ZM15.5276 57.8323C18.378 57.8494 21.2012 58.3884 23.8576 59.4224C25.7303 58.2405 27.9272 57.6773 30.1376 57.8124C27.7776 56.3224 25.5076 54.5124 24.9976 52.1024C20.6776 51.3824 17.1076 48.4423 14.9976 43.9023C12.8076 44.7694 11.0448 46.4604 10.0875 48.6124C8.86754 51.3824 9.08759 54.8224 10.6376 58.6124C12.2115 58.0803 13.8668 57.8299 15.5276 57.8724V57.8323Z" fill="#4D4D4D"/>
</svg>
