<svg width="288" height="288" viewBox="0 0 288 288" fill="none" xmlns="http://www.w3.org/2000/svg">
<path d="M227.52 158.4V169.92" stroke="#107A8B" stroke-width="5.76" stroke-linecap="round" stroke-linejoin="round"/>
<path d="M221.76 164.16H233.28" stroke="#107A8B" stroke-width="5.76" stroke-linecap="round" stroke-linejoin="round"/>
<path d="M77.76 155.52V167.04" stroke="#107A8B" stroke-width="5.76" stroke-linecap="round" stroke-linejoin="round"/>
<path d="M72 161.28H83.52" stroke="#107A8B" stroke-width="5.76" stroke-linecap="round" stroke-linejoin="round"/>
<path d="M184.32 221.76V233.28" stroke="#107A8B" stroke-width="5.76" stroke-linecap="round" stroke-linejoin="round"/>
<path d="M178.56 227.52H190.08" stroke="#107A8B" stroke-width="5.76" stroke-linecap="round" stroke-linejoin="round"/>
<path d="M228.96 92.16V112.32" stroke="#107A8B" stroke-width="5.76" stroke-linecap="round" stroke-linejoin="round"/>
<path d="M218.88 102.24H239.04" stroke="#107A8B" stroke-width="5.76" stroke-linecap="round" stroke-linejoin="round"/>
<path d="M178.56 63.36V80.64" stroke="#107A8B" stroke-width="5.76" stroke-linecap="round" stroke-linejoin="round"/>
<path d="M169.92 72H187.2" stroke="#107A8B" stroke-width="5.76" stroke-linecap="round" stroke-linejoin="round"/>
<path d="M95.04 210.24V227.52" stroke="#107A8B" stroke-width="5.76" stroke-linecap="round" stroke-linejoin="round"/>
<path d="M86.4 218.88H103.68" stroke="#107A8B" stroke-width="5.76" stroke-linecap="round" stroke-linejoin="round"/>
<path d="M181.094 151.718L154.714 178.099L89.6832 113.098L90 112.781H142.186L181.094 151.718Z" fill="#2CB978" stroke="#107A8B" stroke-width="5.76" stroke-linecap="round" stroke-linejoin="round"/>
<path d="M75.8387 111.351L113.636 73.5539L185.299 145.217C186.946 146.864 187.872 149.099 187.872 151.428C187.872 153.758 186.946 155.992 185.299 157.64L159.924 183.014C158.277 184.661 156.043 185.587 153.713 185.587C151.384 185.587 149.149 184.661 147.502 183.014L75.8387 111.351Z" stroke="#107A8B" stroke-width="5.76" stroke-linecap="round" stroke-linejoin="round"/>
<path d="M108.585 50.8507L53.1523 106.283L67.0002 120.131L122.433 64.6987L108.585 50.8507Z" fill="#2CB978" stroke="#107A8B" stroke-width="5.76" stroke-linecap="round" stroke-linejoin="round"/>
<path d="M76.0942 42.941L45.201 73.8343C43.5251 75.5101 43.5251 78.2271 45.201 79.9029L47.2985 82.0005C48.9743 83.6763 51.6914 83.6763 53.3672 82.0005L84.2604 51.1073C85.9362 49.4315 85.9362 46.7144 84.2604 45.0386L82.1628 42.941C80.487 41.2652 77.77 41.2652 76.0942 42.941Z" fill="#2CB978" stroke="#107A8B" stroke-width="5.76" stroke-linecap="round" stroke-linejoin="round"/>
<path d="M78.5656 57.8017L60.0949 76.2725L71.6417 87.8192L90.1124 69.3485L78.5656 57.8017Z" stroke="#107A8B" stroke-width="5.76" stroke-linecap="round" stroke-linejoin="round"/>
<path d="M175.565 182.534L168.653 189.475L161.712 182.534L184.781 159.437L191.722 166.349L184.781 173.29L194.054 182.534L189.446 187.142L184.781 191.75L175.565 182.534Z" stroke="#107A8B" stroke-width="5.76" stroke-linecap="round" stroke-linejoin="round"/>
<path d="M221.76 219.485L189.418 187.142" stroke="#107A8B" stroke-width="5.76" stroke-linecap="round" stroke-linejoin="round"/>
<path d="M107.136 140.112L123.293 123.926" stroke="#107A8B" stroke-width="5.76" stroke-linecap="round" stroke-linejoin="round"/>
<path d="M123.293 156.269L132.538 147.024" stroke="#107A8B" stroke-width="5.76" stroke-linecap="round" stroke-linejoin="round"/>
<path d="M139.478 172.426L155.635 156.269" stroke="#107A8B" stroke-width="5.76" stroke-linecap="round" stroke-linejoin="round"/>
<path d="M218.88 245.664C218.88 247.726 219.699 249.704 221.158 251.162C222.616 252.621 224.594 253.44 226.656 253.44C228.718 253.44 230.696 252.621 232.154 251.162C233.613 249.704 234.432 247.726 234.432 245.664C234.432 241.373 227.376 223.661 227.376 227.981C227.52 233.626 218.88 241.373 218.88 245.664Z" fill="#2CB978" stroke="#107A8B" stroke-width="5.76" stroke-linecap="round" stroke-linejoin="round"/>
</svg>
