<svg id="SvgjsSvg1060" width="288" height="288"
    xmlns="http://www.w3.org/2000/svg" version="1.1"
    xmlns:xlink="http://www.w3.org/1999/xlink"
    xmlns:svgjs="http://svgjs.com/svgjs">
    <defs id="SvgjsDefs1061"></defs>
    <g id="SvgjsG1062" transform="matrix(1,0,0,1,0,0)">
        <svg xmlns="http://www.w3.org/2000/svg" data-name="Layer 2" viewBox="0 0 100 100" width="288" height="288">
            <line x1="79" x2="79" y1="55" y2="59" fill="none" stroke="#107a8b" stroke-linecap="round" stroke-linejoin="round" stroke-width="2" class="colorStroke0a72a0 svgStroke"></line>
            <line x1="77" x2="81" y1="57" y2="57" fill="none" stroke="#107a8b" stroke-linecap="round" stroke-linejoin="round" stroke-width="2" class="colorStroke0a72a0 svgStroke"></line>
            <line x1="27" x2="27" y1="54" y2="58" fill="none" stroke="#107a8b" stroke-linecap="round" stroke-linejoin="round" stroke-width="2" class="colorStroke0a72a0 svgStroke"></line>
            <line x1="25" x2="29" y1="56" y2="56" fill="none" stroke="#107a8b" stroke-linecap="round" stroke-linejoin="round" stroke-width="2" class="colorStroke0a72a0 svgStroke"></line>
            <line x1="64" x2="64" y1="77" y2="81" fill="none" stroke="#107a8b" stroke-linecap="round" stroke-linejoin="round" stroke-width="2" class="colorStroke0a72a0 svgStroke"></line>
            <line x1="62" x2="66" y1="79" y2="79" fill="none" stroke="#107a8b" stroke-linecap="round" stroke-linejoin="round" stroke-width="2" class="colorStroke0a72a0 svgStroke"></line>
            <line x1="79.5" x2="79.5" y1="32" y2="39" fill="none" stroke="#107a8b" stroke-linecap="round" stroke-linejoin="round" stroke-width="2" class="colorStroke0a72a0 svgStroke"></line>
            <line x1="76" x2="83" y1="35.5" y2="35.5" fill="none" stroke="#107a8b" stroke-linecap="round" stroke-linejoin="round" stroke-width="2" class="colorStroke0a72a0 svgStroke"></line>
            <line x1="62" x2="62" y1="22" y2="28" fill="none" stroke="#107a8b" stroke-linecap="round" stroke-linejoin="round" stroke-width="2" class="colorStroke0a72a0 svgStroke"></line>
            <line x1="59" x2="65" y1="25" y2="25" fill="none" stroke="#107a8b" stroke-linecap="round" stroke-linejoin="round" stroke-width="2" class="colorStroke0a72a0 svgStroke"></line>
            <line x1="33" x2="33" y1="73" y2="79" fill="none" stroke="#107a8b" stroke-linecap="round" stroke-linejoin="round" stroke-width="2" class="colorStroke0a72a0 svgStroke"></line>
            <line x1="30" x2="36" y1="76" y2="76" fill="none" stroke="#107a8b" stroke-linecap="round" stroke-linejoin="round" stroke-width="2" class="colorStroke0a72a0 svgStroke"></line>
            <polygon fill="#2cb978" stroke="#107a8b" stroke-linecap="round" stroke-linejoin="round" stroke-width="2" points="62.88 52.68 53.72 61.84 31.14 39.27 31.25 39.16 49.37 39.16 62.88 52.68" class="color37abdd svgShape colorStroke0a72a0 svgStroke"></polygon>
            <path fill="none" stroke="#107a8b" stroke-linecap="round" stroke-linejoin="round" stroke-width="2" d="M37.13,26.5H55.69a0,0,0,0,1,0,0V61.69a3.05,3.05,0,0,1-3.05,3.05H40.18a3.05,3.05,0,0,1-3.05-3.05V26.5A0,0,0,0,1,37.13,26.5Z" transform="rotate(-45 46.414 45.615)" class="colorStroke0a72a0 svgStroke"></path>
            <rect width="27.22" height="6.8" x="16.88" y="26.29" fill="#2cb978" stroke="#107a8b" stroke-linecap="round" stroke-linejoin="round" stroke-width="2" transform="rotate(-45 30.48 29.695)" class="color37abdd svgShape colorStroke0a72a0 svgStroke"></rect>
            <rect width="18.15" height="4.01" x="13.4" y="19.68" fill="#2cb978" stroke="#107a8b" stroke-linecap="round" stroke-linejoin="round" stroke-width="2" rx="1.49" ry="1.49" transform="rotate(-45 22.483 21.687)" class="color37abdd svgShape colorStroke0a72a0 svgStroke"></rect>
            <rect width="9.07" height="5.67" x="21.54" y="22.45" fill="none" stroke="#107a8b" stroke-linecap="round" stroke-linejoin="round" stroke-width="2" transform="rotate(-45 26.072 25.28)" class="colorStroke0a72a0 svgStroke"></rect>
            <polygon fill="none" stroke="#107a8b" stroke-linecap="round" stroke-linejoin="round" stroke-width="2" points="60.96 63.38 58.56 65.79 56.15 63.38 64.16 55.36 66.57 57.76 64.16 60.17 67.38 63.38 65.78 64.98 64.16 66.58 60.96 63.38" class="colorStroke0a72a0 svgStroke"></polygon>
            <line x1="77" x2="65.77" y1="76.21" y2="64.98" fill="none" stroke="#107a8b" stroke-linecap="round" stroke-linejoin="round" stroke-width="2" class="colorStroke0a72a0 svgStroke"></line>
            <line x1="37.2" x2="42.81" y1="48.65" y2="43.03" fill="none" stroke="#107a8b" stroke-linecap="round" stroke-linejoin="round" stroke-width="2" class="colorStroke0a72a0 svgStroke"></line>
            <line x1="42.81" x2="46.02" y1="54.26" y2="51.05" fill="none" stroke="#107a8b" stroke-linecap="round" stroke-linejoin="round" stroke-width="2" class="colorStroke0a72a0 svgStroke"></line>
            <line x1="48.43" x2="54.04" y1="59.87" y2="54.26" fill="none" stroke="#107a8b" stroke-linecap="round" stroke-linejoin="round" stroke-width="2" class="colorStroke0a72a0 svgStroke"></line>
            <path fill="#2cb978" stroke="#107a8b" stroke-linecap="round" stroke-linejoin="round" stroke-width="2" d="M76,85.3a2.7,2.7,0,0,0,5.4,0c0-1.49-2.45-7.64-2.45-6.14C79,81.12,76,83.81,76,85.3Z" class="color37abdd svgShape colorStroke0a72a0 svgStroke"></path>
        </svg>
    </g>
</svg>
