<svg width="120" height="106" viewBox="0 0 120 106" fill="none" xmlns="http://www.w3.org/2000/svg">
<path d="M59.91 12.7119C40.59 12.7119 23.04 24.5319 16.25 42.1419V42.1919C15.872 43.1439 15.2296 43.968 14.3986 44.5669C13.5676 45.1658 12.5827 45.5145 11.56 45.5719C6.46 45.8819 2.31 52.0619 2.31 59.3519C2.31 66.8319 6.73002 73.1519 11.96 73.1519H15.88L16.95 75.6719C20.5691 83.6906 26.3576 90.5379 33.6622 95.4409C40.9668 100.344 49.4965 103.107 58.2885 103.419C67.0805 103.731 75.7848 101.58 83.4185 97.2066C91.0523 92.8337 97.3117 86.4139 101.49 78.6719C102.01 77.6719 102.49 76.6719 102.93 75.6719L104.06 73.0419L106.93 73.1719C107.973 73.1886 109.008 72.9924 109.973 72.5952C110.938 72.198 111.811 71.6082 112.54 70.8619C115.27 68.2619 116.9 63.9719 116.9 59.3819C116.9 52.2319 112.99 46.1919 107.99 45.6319C107.024 45.525 106.106 45.1539 105.336 44.5594C104.567 43.9649 103.977 43.17 103.63 42.2619C96.8499 24.5719 79.31 12.7119 59.91 12.7119Z" fill="white"/>
<path d="M59.92 105.732C50.3803 105.8 41.0289 103.077 33.0174 97.8973C25.0059 92.718 18.684 85.3088 14.83 76.582L14.34 75.452H11.94C5.36 75.452 0 68.2319 0 59.3519C0 50.7319 5.00002 43.662 11.4 43.282C11.9824 43.2479 12.5435 43.0508 13.0192 42.713C13.4948 42.3753 13.8659 41.9106 14.09 41.3719C21.24 22.8319 39.65 10.3719 59.92 10.3719C80.19 10.3719 98.6499 22.8319 105.75 41.3719C105.947 41.8878 106.284 42.339 106.721 42.6761C107.159 43.0131 107.681 43.2227 108.23 43.282C114.47 43.982 119.18 50.872 119.18 59.282C119.18 64.482 117.28 69.402 114.1 72.432C113.153 73.3981 112.017 74.1581 110.762 74.664C109.508 75.17 108.162 75.411 106.81 75.372L105.52 75.312L105.01 76.4819C104.56 77.5419 104.01 78.612 103.5 79.652C99.3215 87.5738 93.0473 94.1956 85.3621 98.7948C77.6769 103.394 68.876 105.794 59.92 105.732V105.732ZM59.92 15.002C41.53 15.002 24.85 26.242 18.4 43.002C17.8676 44.377 16.951 45.57 15.7596 46.4388C14.5681 47.3075 13.152 47.8154 11.68 47.9019C7.83999 48.1319 4.59003 53.402 4.59003 59.392C4.59003 65.382 8.03 70.902 11.94 70.902H15.86C16.309 70.9024 16.748 71.0343 17.123 71.2813C17.4979 71.5283 17.7923 71.8796 17.97 72.2919L19.04 74.802C22.4899 82.4205 27.9991 88.9241 34.9467 93.5798C41.8943 98.2354 50.0041 100.858 58.3622 101.152C66.7204 101.447 74.9945 99.4006 82.2523 95.2449C89.51 91.0892 95.4629 84.9891 99.44 77.6319C99.93 76.6919 100.39 75.732 100.8 74.772L101.94 72.142C102.118 71.7102 102.427 71.345 102.824 71.0976C103.22 70.8501 103.684 70.7328 104.15 70.7619L107.02 70.892C107.752 70.8967 108.478 70.7499 109.151 70.4608C109.824 70.1717 110.429 69.7465 110.93 69.212C113.22 67.032 114.59 63.362 114.59 59.392C114.59 53.492 111.5 48.392 107.72 47.922C106.335 47.7702 105.018 47.239 103.915 46.3867C102.812 45.5345 101.966 44.3944 101.47 43.0919C95.04 26.2719 78.31 15.002 59.92 15.002V15.002Z" fill="#4D4D4D"/>
<path d="M49.5399 54.022C49.1478 54.0232 48.7621 53.9233 48.4199 53.732C42.6599 50.532 35.2499 53.7919 35.1799 53.8219C34.6378 54.005 34.0469 53.9794 33.5227 53.7501C32.9984 53.5208 32.5784 53.1043 32.3447 52.582C32.111 52.0597 32.0805 51.4691 32.259 50.9254C32.4375 50.3818 32.8121 49.9242 33.3099 49.642C33.6999 49.462 42.8699 45.3819 50.6799 49.7219C51.1275 49.9662 51.4807 50.3529 51.6836 50.8207C51.8865 51.2885 51.9275 51.8107 51.8 52.3044C51.6726 52.7981 51.384 53.2351 50.9801 53.5463C50.5761 53.8574 50.0798 54.0248 49.5699 54.022H49.5399Z" fill="#4D4D4D"/>
<path d="M86.3098 54.022C85.9208 54.0242 85.538 53.9242 85.1998 53.732C79.4398 50.532 72.0198 53.7919 71.9498 53.8219C71.4028 54.0316 70.7963 54.0247 70.2542 53.8024C69.7121 53.5802 69.2752 53.1594 69.0327 52.6261C68.7903 52.0927 68.7606 51.4869 68.9496 50.9323C69.1386 50.3778 69.5321 49.9163 70.0498 49.642C70.4398 49.462 79.6098 45.3819 87.4298 49.7219C87.8782 49.9666 88.2318 50.3542 88.4346 50.823C88.6373 51.2919 88.6776 51.815 88.5488 52.3093C88.4201 52.8036 88.1298 53.2406 87.7241 53.551C87.3184 53.8613 86.8206 54.0271 86.3098 54.022V54.022Z" fill="#4D4D4D"/>
<path d="M59.2498 88.542C64.4468 88.542 68.6599 84.432 68.6599 79.362C68.6599 74.292 64.4468 70.182 59.2498 70.182C54.0528 70.182 49.8399 74.292 49.8399 79.362C49.8399 84.432 54.0528 88.542 59.2498 88.542Z" fill="#4AC0A4"/>
<path d="M59.2498 90.832C56.9892 90.7867 54.7923 90.0748 52.9347 88.7857C51.0772 87.4966 49.6416 85.6877 48.8082 83.5858C47.9747 81.484 47.7805 79.1828 48.2499 76.971C48.7193 74.7592 49.8314 72.7352 51.4467 71.1531C53.062 69.5709 55.1086 68.501 57.3296 68.0774C59.5507 67.6539 61.8473 67.8957 63.9315 68.7725C66.0156 69.6493 67.7945 71.122 69.0449 73.0059C70.2952 74.8897 70.9614 77.1009 70.9599 79.362C70.923 82.4342 69.6697 85.3665 67.4748 87.5165C65.2799 89.6664 62.3221 90.8586 59.2498 90.832V90.832ZM59.2498 72.4719C57.8978 72.5171 56.589 72.9593 55.4866 73.7433C54.3842 74.5273 53.5371 75.6185 53.0507 76.8808C52.5643 78.143 52.4603 79.5206 52.7515 80.8416C53.0428 82.1626 53.7164 83.3687 54.6885 84.3094C55.6606 85.2501 56.8882 85.8838 58.2181 86.1316C59.5479 86.3793 60.9213 86.2301 62.1669 85.7025C63.4126 85.175 64.4753 84.2924 65.2227 83.1648C65.9701 82.0373 66.3692 80.7147 66.3699 79.362C66.3556 78.4418 66.16 77.5335 65.7942 76.6891C65.4285 75.8446 64.8999 75.0805 64.2386 74.4406C63.5773 73.8006 62.7963 73.2974 61.9402 72.9596C61.0842 72.6218 60.1699 72.4561 59.2498 72.4719V72.4719Z" fill="#4D4D4D"/>
<path d="M59.84 38.922C57.8521 38.92 55.8831 38.5364 54.0399 37.792C52.0478 37.0052 50.2604 35.7765 48.8122 34.1984C47.3641 32.6204 46.2931 30.7342 45.6799 28.682C45.0627 26.8514 44.8486 24.909 45.0522 22.9879C45.2559 21.0668 45.8726 19.2125 46.86 17.552C50.7 11.792 57.35 12.232 60.86 13.942C63.13 15.032 64.9899 17.812 65.5099 20.862C65.7823 22.4487 65.6613 24.078 65.1575 25.607C64.6536 27.1361 63.7824 28.5181 62.62 29.632C62.1834 30.0344 61.608 30.2524 61.0143 30.2404C60.4206 30.2283 59.8546 29.9871 59.4347 29.5672C59.0148 29.1473 58.7737 28.5813 58.7616 27.9876C58.7495 27.3939 58.9675 26.8186 59.37 26.382C60.0187 25.7892 60.5065 25.0418 60.7881 24.2094C61.0696 23.377 61.1357 22.4868 60.98 21.622C60.8832 20.9193 60.6466 20.2432 60.2842 19.6335C59.9218 19.0237 59.441 18.4928 58.87 18.072C57.42 17.382 53.1399 16.382 50.6599 20.072C50.0545 21.1659 49.6864 22.3752 49.5796 23.6209C49.4728 24.8667 49.6296 26.1209 50.0399 27.302C50.4619 28.6964 51.1926 29.9778 52.1776 31.0511C53.1627 32.1245 54.3768 32.9622 55.73 33.502C62.09 36.042 68.5799 32.172 71.1899 26.962C73.2499 22.832 72.1899 12.342 62.9199 7.02199C60.2789 5.44379 57.2625 4.60377 54.1859 4.58969C51.1093 4.57562 48.0853 5.38802 45.4299 6.94199C44.9222 7.24797 44.316 7.3461 43.7377 7.21591C43.1593 7.08573 42.6535 6.73727 42.3259 6.24324C41.9983 5.74922 41.874 5.14777 41.9791 4.56436C42.0842 3.98096 42.4105 3.46066 42.8899 3.11199C46.2562 1.08941 50.1067 0.0142225 54.0339 0.000140133C57.9611 -0.0139422 61.8192 1.0336 65.1999 3.03199C76.7599 9.64199 78.5099 22.592 75.2899 29.032C72.5599 34.542 66.54 38.922 59.84 38.922Z" fill="#4D4D4D"/>
</svg>
