<svg width="107" height="105" viewBox="0 0 107 105" fill="none" xmlns="http://www.w3.org/2000/svg">
<path d="M77.1801 2.07001C66.9301 2.07001 60.85 12.07 53.27 12.07C45.69 12.07 39.6101 2.07001 29.3701 2.07001C14.2801 2.07001 2.05005 14 2.05005 28.71C2.05005 48.71 19.12 101.99 39.61 101.99C49.86 101.99 39.61 65.35 53.27 65.35C66.93 65.35 56.6901 102.02 66.9301 102.02C87.4201 102.02 104.5 48.73 104.5 28.74C104.5 14.02 92.2601 2.07001 77.1801 2.07001Z" fill="#4AC0A4"/>
<path d="M66.9301 104.02C60.2201 104.02 59.8301 95.12 59.4301 85.71C58.9601 74.97 58.25 67.38 53.27 67.38C48.29 67.38 47.5801 74.97 47.1201 85.71C46.7101 95.12 46.33 104.02 39.61 104.02C17.61 104.02 0 49.92 0 28.69C0 12.87 13.1701 0 29.3701 0C35.5001 0 40.17 3.14 44.3 5.91C47.57 8.1 50.39 9.99001 53.3 9.99001C56.21 9.99001 59 8.1 62.3 5.91C66.43 3.14 71.1101 0 77.2401 0C93.4301 0 106.6 12.87 106.6 28.69C106.54 49.94 88.9801 104.02 66.9301 104.02ZM53.27 63.29C62.55 63.29 63.06 75.1 63.51 85.53C63.79 91.94 64.1401 99.92 66.9301 99.92C85.5601 99.92 102.45 48.64 102.45 28.69C102.45 15.13 91.1101 4.09001 77.1801 4.09001C72.2901 4.09001 68.34 6.74 64.52 9.3C60.86 11.76 57.39 14.08 53.27 14.08C49.15 14.08 45.69 11.76 42.02 9.3C38.2 6.74 34.2501 4.09001 29.3701 4.09001C15.4301 4.09001 4.09003 15.09 4.09003 28.69C4.09003 48.64 20.98 99.92 39.61 99.92C42.41 99.92 42.75 91.92 43.03 85.53C43.48 75.12 43.99 63.31 53.27 63.31V63.29Z" fill="#4D4D4D"/>
<path d="M67.78 20.61C67.3874 20.6161 67.0016 20.5066 66.6709 20.2949C66.3401 20.0833 66.079 19.779 65.92 19.42C65.79 19.16 63.29 14.42 52.78 14.42C42.27 14.42 39.67 19.33 39.65 19.42C39.5417 19.6656 39.386 19.8874 39.1919 20.0728C38.9979 20.2582 38.7692 20.4036 38.519 20.5006C38.2687 20.5977 38.0018 20.6445 37.7334 20.6384C37.4651 20.6322 37.2006 20.5733 36.955 20.465C36.7094 20.3567 36.4876 20.201 36.3022 20.0069C36.1167 19.8129 35.9714 19.5842 35.8744 19.3339C35.7773 19.0837 35.7305 18.8167 35.7366 18.5484C35.7427 18.2801 35.8017 18.0156 35.91 17.77C36.04 17.47 39.33 10.37 52.78 10.37C66.23 10.37 69.51 17.47 69.65 17.77C69.8657 18.2676 69.8764 18.8303 69.6798 19.3357C69.4832 19.8412 69.0952 20.2488 68.6 20.47C68.3395 20.5736 68.0601 20.6213 67.78 20.61V20.61Z" fill="#4D4D4D"/>
</svg>
