<svg width="84" height="113" viewBox="0 0 84 113" fill="none" xmlns="http://www.w3.org/2000/svg">
<path d="M81.49 71.8C81.49 93.11 63.71 110.45 41.86 110.45C20.01 110.45 2.21997 93.11 2.21997 71.8V33.14C2.21997 10.34 22.69 2.20996 41.86 2.20996C61.03 2.20996 81.49 10.34 81.49 33.14V71.8Z" fill="white"/>
<path d="M41.86 112.67C18.78 112.67 0 94.33 0 71.8V33.14C0 8.69995 21.62 0 41.86 0C62.1 0 83.71 8.69995 83.71 33.14V71.8C83.71 94.33 64.93 112.67 41.86 112.67ZM41.86 4.42999C23.77 4.42999 4.44 11.97 4.44 33.14V71.8C4.44 91.89 21.22 108.23 41.86 108.23C62.5 108.23 79.28 91.89 79.28 71.8V33.14C79.28 11.98 59.94 4.42999 41.86 4.42999Z" fill="#4D4D4D"/>
<path d="M9.28001 53.37C8.92246 53.7046 8.63695 54.1087 8.44093 54.5574C8.24492 55.0062 8.14252 55.4903 8.14001 55.98C8.15194 56.4534 8.25901 56.9197 8.45486 57.3509C8.65071 57.7821 8.93133 58.1695 9.28001 58.49C9.9784 59.1705 10.9149 59.5513 11.89 59.5513C12.8651 59.5513 13.8016 59.1705 14.5 58.49C14.8476 58.1625 15.1246 57.7673 15.3138 57.3287C15.5029 56.8902 15.6003 56.4176 15.6 55.94C15.599 55.4597 15.501 54.9844 15.312 54.5428C15.123 54.1012 14.8468 53.7023 14.5 53.37C13.7827 52.727 12.8533 52.3713 11.89 52.3713C10.9267 52.3713 9.99729 52.727 9.28001 53.37V53.37Z" fill="#4AC0A4"/>
<path d="M20.33 56.98C19.9886 57.3101 19.7171 57.7056 19.5316 58.1428C19.3462 58.58 19.2506 59.0501 19.2506 59.525C19.2506 59.9999 19.3462 60.47 19.5316 60.9073C19.7171 61.3445 19.9886 61.7399 20.33 62.07C21.0325 62.7576 21.977 63.1418 22.96 63.14C23.4441 63.1426 23.924 63.0495 24.3719 62.8658C24.8199 62.6822 25.227 62.4117 25.57 62.07C25.9171 61.7411 26.1935 61.3449 26.3824 60.9056C26.5713 60.4663 26.6688 59.9932 26.6688 59.515C26.6688 59.0368 26.5713 58.5636 26.3824 58.1244C26.1935 57.6851 25.9171 57.2889 25.57 56.96C24.8501 56.312 23.9147 55.9552 22.9461 55.9589C21.9776 55.9626 21.045 56.3266 20.33 56.98V56.98Z" fill="#4AC0A4"/>
<path d="M31.45 53.39C31.107 53.7202 30.8342 54.1163 30.6478 54.5545C30.4615 54.9926 30.3654 55.4639 30.3654 55.94C30.3654 56.4162 30.4615 56.8874 30.6478 57.3255C30.8342 57.7637 31.107 58.1598 31.45 58.49C32.1513 59.1688 33.089 59.5482 34.065 59.5482C35.041 59.5482 35.9787 59.1688 36.68 58.49C37.0214 58.1661 37.2946 57.7771 37.4835 57.3461C37.6724 56.915 37.7732 56.4506 37.78 55.98C37.7786 55.5006 37.6814 55.0264 37.4942 54.5851C37.3071 54.1437 37.0336 53.7442 36.69 53.41C35.9729 52.7607 35.0411 52.3995 34.0738 52.3958C33.1065 52.3921 32.172 52.7462 31.45 53.39V53.39Z" fill="#4AC0A4"/>
<path d="M46.28 53.37C45.9332 53.7023 45.657 54.1012 45.468 54.5428C45.279 54.9844 45.181 55.4597 45.18 55.94C45.1797 56.4176 45.2771 56.8902 45.4663 57.3287C45.6554 57.7673 45.9324 58.1625 46.28 58.49C46.9784 59.1705 47.9149 59.5513 48.89 59.5513C49.8651 59.5513 50.8016 59.1705 51.5 58.49C51.8462 58.1614 52.1222 57.766 52.3113 57.3277C52.5004 56.8894 52.5986 56.4173 52.6 55.94C52.599 55.4597 52.501 54.9844 52.312 54.5428C52.123 54.1012 51.8468 53.7023 51.5 53.37C50.7827 52.727 49.8533 52.3713 48.89 52.3713C47.9267 52.3713 46.9973 52.727 46.28 53.37V53.37Z" fill="#4AC0A4"/>
<path d="M57.39 56.98C57.0486 57.3101 56.7771 57.7055 56.5916 58.1428C56.4062 58.58 56.3106 59.05 56.3106 59.525C56.3106 59.9999 56.4062 60.47 56.5916 60.9072C56.7771 61.3445 57.0486 61.7399 57.39 62.07C58.0925 62.7576 59.037 63.1418 60.02 63.14C60.5041 63.1426 60.984 63.0494 61.4319 62.8658C61.8799 62.6821 62.287 62.4117 62.63 62.07C62.9763 61.742 63.2517 61.3465 63.4392 60.9079C63.6266 60.4693 63.7222 59.9969 63.72 59.52C63.718 59.0451 63.6204 58.5756 63.4332 58.1392C63.2459 57.7029 62.9728 57.3086 62.63 56.98C61.9125 56.3293 60.9786 55.9689 60.01 55.9689C59.0414 55.9689 58.1075 56.3293 57.39 56.98V56.98Z" fill="#4AC0A4"/>
<path d="M68.52 53.37C68.1715 53.7089 67.8953 54.1149 67.7079 54.5635C67.5206 55.012 67.426 55.4939 67.43 55.98C67.4301 56.4566 67.5268 56.9283 67.7141 57.3665C67.9014 57.8048 68.1756 58.2005 68.52 58.53C69.2213 59.2087 70.159 59.5882 71.135 59.5882C72.111 59.5882 73.0487 59.2087 73.75 58.53C74.0944 58.2005 74.3685 57.8048 74.5559 57.3665C74.7432 56.9283 74.8399 56.4566 74.84 55.98C74.8386 55.5006 74.7414 55.0263 74.5542 54.585C74.3671 54.1437 74.0936 53.7442 73.75 53.41C73.035 52.7627 72.107 52.401 71.1426 52.3937C70.1782 52.3863 69.2448 52.7338 68.52 53.37Z" fill="#4AC0A4"/>
<path d="M19.28 30.64C20.2626 30.6397 21.2063 30.2558 21.91 29.57C22.2493 29.2304 22.517 28.8262 22.6974 28.3813C22.8777 27.9365 22.967 27.46 22.96 26.98C22.9591 26.505 22.8621 26.035 22.6747 25.5985C22.4874 25.162 22.2137 24.7679 21.87 24.44C21.1573 23.7836 20.2239 23.4193 19.255 23.4193C18.2861 23.4193 17.3527 23.7836 16.64 24.44C16.2954 24.7672 16.021 25.1612 15.8336 25.5978C15.6462 26.0345 15.5497 26.5048 15.55 26.98C15.5514 27.4594 15.6486 27.9336 15.8357 28.3749C16.0229 28.8163 16.2963 29.2158 16.64 29.55C17.3442 30.2437 18.2915 30.6348 19.28 30.64Z" fill="#4AC0A4"/>
<path d="M30.37 34.25C31.3451 34.2514 32.282 33.8709 32.98 33.19C33.3277 32.8625 33.6046 32.4673 33.7938 32.0287C33.9829 31.5902 34.0804 31.1176 34.08 30.64C34.079 30.1596 33.981 29.6845 33.792 29.2429C33.603 28.8013 33.3268 28.4023 32.98 28.07C32.2648 27.4228 31.3346 27.0644 30.37 27.0644C29.4054 27.0644 28.4753 27.4228 27.76 28.07C27.4146 28.4028 27.1399 28.8021 26.9526 29.2437C26.7653 29.6854 26.6692 30.1602 26.67 30.64C26.6678 31.1169 26.7634 31.5893 26.9509 32.0279C27.1383 32.4665 27.4137 32.862 27.76 33.19C28.4562 33.8737 29.3943 34.2546 30.37 34.25V34.25Z" fill="#4AC0A4"/>
<path d="M41.49 34.25C42.4651 34.2514 43.402 33.8709 44.1 33.19C44.4463 32.862 44.7216 32.4665 44.9091 32.0279C45.0966 31.5893 45.1922 31.1169 45.19 30.64C45.1908 30.1602 45.0947 29.6854 44.9074 29.2437C44.7201 28.8021 44.4454 28.4028 44.1 28.07C43.3847 27.4228 42.4545 27.0644 41.49 27.0644C40.5254 27.0644 39.5952 27.4228 38.88 28.07C38.5331 28.4023 38.257 28.8013 38.068 29.2429C37.8789 29.6845 37.781 30.1596 37.78 30.64C37.7796 31.1176 37.8771 31.5902 38.0662 32.0287C38.2554 32.4673 38.5323 32.8625 38.88 33.19C39.5762 33.8737 40.5142 34.2546 41.49 34.25V34.25Z" fill="#4AC0A4"/>
<path d="M52.61 34.25C53.5847 34.2493 54.5208 33.8691 55.22 33.19C55.559 32.858 55.8276 32.4611 56.0097 32.0229C56.1918 31.5848 56.2838 31.1144 56.28 30.64C56.2786 30.1606 56.1814 29.6864 55.9942 29.2451C55.8071 28.8037 55.5336 28.4042 55.19 28.07C54.4731 27.4221 53.5413 27.0634 52.575 27.0634C51.6087 27.0634 50.6769 27.4221 49.96 28.07C49.6164 28.4042 49.3429 28.8037 49.1557 29.2451C48.9686 29.6864 48.8714 30.1606 48.87 30.64C48.8701 31.1166 48.9668 31.5882 49.1541 32.0265C49.3414 32.4647 49.6156 32.8606 49.96 33.19C50.3102 33.5324 50.7245 33.8024 51.1793 33.9843C51.6341 34.1662 52.1203 34.2565 52.61 34.25V34.25Z" fill="#4AC0A4"/>
<path d="M63.72 30.64C64.7002 30.6424 65.6417 30.2579 66.34 29.57C66.6839 29.2414 66.9577 28.8464 67.1447 28.4089C67.3318 27.9715 67.4282 27.5007 67.4282 27.025C67.4282 26.5492 67.3318 26.0785 67.1447 25.6411C66.9577 25.2036 66.6839 24.8086 66.34 24.48C65.6229 23.8244 64.6865 23.4608 63.715 23.4608C62.7434 23.4608 61.807 23.8244 61.09 24.48C60.4165 25.1389 60.0318 26.0379 60.02 26.98C60.0236 27.459 60.1218 27.9326 60.3088 28.3736C60.4958 28.8146 60.7681 29.2144 61.11 29.55C61.8067 30.2365 62.7419 30.627 63.72 30.64V30.64Z" fill="#4AC0A4"/>
<path d="M23.7 49.57C20.5455 49.6353 17.4536 48.6852 14.88 46.86C14.4544 46.4831 14.1897 45.9573 14.1402 45.391C14.0908 44.8247 14.2605 44.261 14.6144 43.8161C14.9683 43.3712 15.4793 43.079 16.0422 42.9997C16.6051 42.9205 17.177 43.0601 17.64 43.3899C17.87 43.5599 22.58 47.06 30.13 43.6C30.646 43.4339 31.2049 43.4624 31.7014 43.68C32.1978 43.8976 32.5975 44.2893 32.8251 44.7813C33.0526 45.2733 33.0923 45.8315 32.9366 46.3507C32.7809 46.87 32.4407 47.3143 31.98 47.6C29.3954 48.8491 26.5702 49.5213 23.7 49.57Z" fill="#4D4D4D"/>
<path d="M60.6 49.57C57.7177 49.5437 54.8767 48.8812 52.28 47.63C51.9808 47.5337 51.7055 47.375 51.4722 47.1643C51.239 46.9537 51.0531 46.6958 50.9269 46.408C50.8007 46.1201 50.7371 45.8088 50.7403 45.4945C50.7434 45.1802 50.8133 44.8701 50.9452 44.5849C51.0772 44.2996 51.2682 44.0456 51.5056 43.8396C51.7431 43.6337 52.0215 43.4805 52.3226 43.3903C52.6237 43.3 52.9405 43.2747 53.2521 43.3161C53.5636 43.3574 53.8629 43.4644 54.13 43.63C61.82 47.16 66.55 43.47 66.6 43.43C66.8246 43.2272 67.0883 43.0725 67.3749 42.9754C67.6615 42.8782 67.9649 42.8407 68.2666 42.8651C68.5682 42.8895 68.8616 42.9753 69.1289 43.1172C69.3961 43.2591 69.6315 43.4542 69.8207 43.6904C70.0098 43.9267 70.1486 44.199 70.2286 44.4909C70.3086 44.7827 70.3281 45.0878 70.2859 45.3875C70.2437 45.6871 70.1407 45.975 69.9832 46.2334C69.8257 46.4917 69.617 46.7152 69.37 46.89C66.8082 48.6975 63.7346 49.6368 60.6 49.57V49.57Z" fill="#4D4D4D"/>
<path d="M41.45 76.19C38.2952 76.2574 35.2026 75.3072 32.63 73.48C32.4002 73.2988 32.2083 73.0741 32.0653 72.8187C31.9223 72.5633 31.8311 72.2823 31.7967 71.9917C31.7624 71.701 31.7856 71.4064 31.8651 71.1247C31.9446 70.8431 32.0787 70.5798 32.26 70.35C32.4412 70.1202 32.6659 69.9283 32.9213 69.7854C33.1767 69.6424 33.4577 69.5511 33.7483 69.5168C34.039 69.4824 34.3336 69.5056 34.6152 69.5851C34.8969 69.6646 35.1602 69.7988 35.39 69.98C35.62 70.16 40.33 73.66 47.87 70.19C48.3872 70.0178 48.9497 70.0418 49.4503 70.2576C49.9509 70.4734 50.3546 70.8659 50.5845 71.3602C50.8143 71.8545 50.8543 72.4161 50.6967 72.938C50.5391 73.4599 50.195 73.9055 49.73 74.19C47.1481 75.4504 44.3225 76.1329 41.45 76.19V76.19Z" fill="#4D4D4D"/>
<path d="M48.77 91.22H33.98C33.6766 91.2404 33.3723 91.1982 33.0858 91.0961C32.7994 90.994 32.537 90.8342 32.3149 90.6265C32.0928 90.4188 31.9157 90.1678 31.7946 89.8888C31.6736 89.6099 31.6111 89.3091 31.6111 89.005C31.6111 88.7009 31.6736 88.4001 31.7946 88.1211C31.9157 87.8422 32.0928 87.5911 32.3149 87.3834C32.537 87.1757 32.7994 87.0159 33.0858 86.9138C33.3723 86.8117 33.6766 86.7696 33.98 86.79H48.77C49.0734 86.7696 49.3777 86.8117 49.6642 86.9138C49.9506 87.0159 50.213 87.1757 50.4351 87.3834C50.6572 87.5911 50.8343 87.8422 50.9554 88.1211C51.0764 88.4001 51.1389 88.7009 51.1389 89.005C51.1389 89.3091 51.0764 89.6099 50.9554 89.8888C50.8343 90.1678 50.6572 90.4188 50.4351 90.6265C50.213 90.8342 49.9506 90.994 49.6642 91.0961C49.3777 91.1982 49.0734 91.2404 48.77 91.22V91.22Z" fill="#4D4D4D"/>
</svg>
