<svg width="118" height="69" viewBox="0 0 118 69" fill="none" xmlns="http://www.w3.org/2000/svg">
<path d="M58.5834 66.13C89.7157 66.13 114.953 51.821 114.953 34.17C114.953 16.5189 89.7157 2.20996 58.5834 2.20996C27.4512 2.20996 2.21344 16.5189 2.21344 34.17C2.21344 51.821 27.4512 66.13 58.5834 66.13Z" fill="white"/>
<path d="M58.5735 68.34C28.5735 68.34 6.51346 43.23 0.473463 35.53C0.166846 35.143 0 34.6637 0 34.17C0 33.6762 0.166846 33.197 0.473463 32.81C6.47346 25.11 28.5635 0 58.5735 0C88.5835 0 110.643 25.11 116.683 32.81C116.99 33.197 117.157 33.6762 117.157 34.17C117.157 34.6637 116.99 35.143 116.683 35.53C110.643 43.23 88.5935 68.34 58.5735 68.34ZM5.00346 34.17C12.0035 42.68 32.0735 63.92 58.5335 63.92C84.9935 63.92 105.093 42.68 112.073 34.17C105.073 25.66 85.0035 4.42 58.5335 4.42C32.0635 4.42 12.0035 25.66 5.00346 34.17Z" fill="#4D4D4D"/>
<path d="M58.5835 55.57C70.7006 55.57 80.5235 45.9889 80.5235 34.17C80.5235 22.3511 70.7006 12.77 58.5835 12.77C46.4664 12.77 36.6435 22.3511 36.6435 34.17C36.6435 45.9889 46.4664 55.57 58.5835 55.57Z" fill="#4AC0A4"/>
<path d="M58.5735 57.7699C45.2635 57.7699 34.4335 47.1799 34.4335 34.1699C34.4335 21.1599 45.2635 10.5699 58.5735 10.5699C71.8835 10.5699 82.7235 21.1599 82.7235 34.1699C82.7235 47.1799 71.8935 57.7699 58.5735 57.7699ZM58.5735 14.9799C47.7035 14.9799 38.8535 23.5899 38.8535 34.1699C38.8535 44.7499 47.7035 53.3599 58.5735 53.3599C69.4435 53.3599 78.3035 44.7499 78.3035 34.1699C78.3035 23.5899 69.4535 14.9799 58.5735 14.9799V14.9799Z" fill="#4D4D4D"/>
<path d="M58.5835 42.63C63.3718 42.63 67.2535 38.8423 67.2535 34.17C67.2535 29.4976 63.3718 25.71 58.5835 25.71C53.7951 25.71 49.9135 29.4976 49.9135 34.17C49.9135 38.8423 53.7951 42.63 58.5835 42.63Z" fill="#4D4D4D"/>
</svg>
